<svg width="166" height="103" viewBox="0 0 166 103" fill="none" xmlns="http://www.w3.org/2000/svg">
<path d="M57.0303 40.4726L69.3045 42.001C69.3045 42.001 103.362 21.8187 107.708 33.8935C110.499 41.6476 102.286 51.9027 102.286 51.9027C102.286 51.9027 105.064 67.7328 96.0032 72.0764C89.1639 75.3552 82.0848 70.0118 76.7708 63.9533C83.0266 75.391 83.2099 84.2426 82.1466 87.932L64.5801 87.7355C70.1385 82.6743 65.164 60.9739 61.982 50.7563C63.2172 62.1972 47.8334 79.9928 39.9871 87.4604L25.816 77.6955C37.0271 75.2592 50.5065 58.2114 55.8449 49.9921C55.8449 49.9921 24.6335 74.6035 18.593 61.6041C14.5274 52.8549 21.8704 42.428 21.8704 42.428C21.8704 42.428 17.1806 30.0274 21.788 23.1947C28.9628 12.5544 57.0303 40.4726 57.0303 40.4726Z" fill="#ECB8D7"/>
<path d="M68.1191 51.5205L69.3045 42.001M68.1191 51.5205L61.982 50.7563M68.1191 51.5205C68.1191 51.5205 71.6138 58.0737 76.7708 63.9533M55.8449 49.9921L57.0303 40.4726M55.8449 49.9921C55.8449 49.9921 24.6335 74.6035 18.593 61.6041C14.5274 52.8549 21.8704 42.428 21.8704 42.428C21.8704 42.428 17.1806 30.0274 21.788 23.1947C28.9628 12.5544 57.0303 40.4726 57.0303 40.4726M55.8449 49.9921C50.5065 58.2114 37.0271 75.2592 25.816 77.6955L39.9871 87.4604C47.8334 79.9928 63.2172 62.1972 61.982 50.7563M55.8449 49.9921L61.982 50.7563M57.0303 40.4726L69.3045 42.001M69.3045 42.001C69.3045 42.001 103.362 21.8187 107.708 33.8935C110.499 41.6476 102.286 51.9027 102.286 51.9027C102.286 51.9027 105.064 67.7328 96.0032 72.0764C89.1639 75.3552 82.0848 70.0118 76.7708 63.9533M61.982 50.7563C65.164 60.9739 70.1385 82.6743 64.5801 87.7355L82.1466 87.932C83.2099 84.2426 83.0266 75.391 76.7708 63.9533" stroke="#A56A8D" stroke-linecap="round" stroke-linejoin="round"/>
<path d="M57.5667 38.365L68.7966 39.0587C68.7966 39.0587 98.0304 22.9824 101.364 33.271C103.505 39.878 95.3761 49.2198 95.3761 49.2198C95.3761 49.2198 97.2865 62.629 89.5371 66.0419C83.6873 68.6182 77.8694 63.9255 73.5577 58.6783C78.5169 68.482 78.4312 75.9428 77.4356 79.0216L62.6445 78.3797C67.4636 74.2673 63.862 55.8539 61.4588 47.1613C62.189 56.8316 48.7485 71.4039 41.937 77.4812L30.2653 68.8719C39.7746 67.1237 51.5907 53.1297 56.3101 46.3512C56.3101 46.3512 29.3531 66.2353 24.6176 55.122C21.4303 47.6422 27.8982 39.0587 27.8982 39.0587C27.8982 39.0587 24.2841 28.4864 28.3502 22.856C34.6821 14.0882 57.5667 38.365 57.5667 38.365Z" fill="#CF83B1"/>
<path d="M66.6074 47.9714L68.7966 39.0587M66.6074 47.9714L61.4588 47.1613M66.6074 47.9714C66.6074 47.9714 69.3733 53.586 73.5577 58.6783M56.3101 46.3512L57.5667 38.365M56.3101 46.3512C56.3101 46.3512 29.3531 66.2353 24.6176 55.122C21.4303 47.6422 27.8982 39.0587 27.8982 39.0587C27.8982 39.0587 24.2841 28.4864 28.3502 22.856C34.6821 14.0882 57.5667 38.365 57.5667 38.365M56.3101 46.3512C51.5907 53.1297 39.7746 67.1237 30.2653 68.8719L41.937 77.4812C48.7485 71.4038 62.189 56.8316 61.4588 47.1613M56.3101 46.3512L61.4588 47.1613M57.5667 38.365L68.7966 39.0587M68.7966 39.0587C68.7966 39.0587 98.0304 22.9824 101.364 33.271C103.505 39.878 95.3761 49.2198 95.3761 49.2198C95.3761 49.2198 97.2865 62.629 89.5371 66.0419C83.6873 68.6182 77.8694 63.9255 73.5577 58.6783M61.4588 47.1613C63.862 55.8539 67.4636 74.2673 62.6445 78.3797L77.4356 79.0216C78.4312 75.9428 78.5169 68.482 73.5577 58.6783" stroke="#A56A8D" stroke-linecap="round" stroke-linejoin="round"/>
</svg>
