<svg width="129" height="103" viewBox="0 0 129 103" fill="none" xmlns="http://www.w3.org/2000/svg">
<path d="M65.9754 45.7762C69.076 46.3656 72.0204 47.7389 71.2913 51.4004C70.9733 52.9977 69.4438 53.5037 67.661 53.4724C65.3568 53.4319 62.6295 52.494 61.5473 51.8548C55.789 48.4532 62.8751 45.1867 65.9754 45.7762Z" fill="#E0CEC1"/>
<path d="M61.5473 51.8548C55.789 48.4532 62.8751 45.1867 65.9754 45.7762C69.076 46.3656 72.0204 47.7389 71.2913 51.4004C70.9733 52.9977 69.4438 53.5037 67.661 53.4724M61.5473 51.8548C55.0522 57.5404 39.0501 67.8777 27.0023 63.7417M61.5473 51.8548C62.6295 52.494 65.3568 53.4319 67.661 53.4724M67.661 53.4724C68.8719 58.1645 75.546 68.8184 92.5545 73.8974M59.3194 47.5383C55.3321 40.6288 45.3203 27.3451 37.1711 29.4867C26.9846 32.1637 21.2287 44.9103 26.9871 48.3119C32.7455 51.7135 54.8913 53.6169 59.3194 47.5383ZM71.7212 49.8961C78.0688 44.9514 92.4473 36.3047 99.1803 41.2756C107.597 47.4893 108.042 61.4148 101.398 62.4586C94.7547 63.5024 73.494 57.1536 71.7212 49.8961Z" stroke="#A78268" stroke-width="0.5" stroke-linecap="round" stroke-linejoin="round"/>
</svg>
