<svg width="166" height="103" viewBox="0 0 166 103" fill="none" xmlns="http://www.w3.org/2000/svg">
<path d="M66.655 48.914C59.2798 46.5011 43.1545 44.1834 37.6544 54.2148C32.1542 64.2463 54.6964 54.8607 66.655 48.914ZM66.655 48.914C74.1916 47.0663 90.4461 45.9757 95.1712 56.3946C99.8963 66.8136 78.1292 55.7488 66.655 48.914ZM66.655 48.914C60.214 60.3547 44.6461 82.2535 33.902 78.3234M66.655 48.914C66.5686 59.6337 69.0098 81.4202 79.4655 82.8085" stroke="#B1A2C0" stroke-width="0.1" stroke-linecap="round" stroke-linejoin="round"/>
<path d="M66.4596 49.3501C59.4035 46.1212 43.6422 42.0003 37.0463 51.3478C30.4503 60.6953 53.9068 53.9108 66.4596 49.3501ZM66.4596 49.3501C74.1565 48.3638 90.4303 49.1126 93.9507 59.9978C97.4711 70.883 77.0901 57.4348 66.4596 49.3501ZM66.4596 49.3501C58.7699 59.9917 40.8325 79.996 30.5999 74.8797M66.4596 49.3501C65.1653 59.9917 65.1348 81.9146 75.3674 84.4727" stroke="#42364E" stroke-width="0.5" stroke-linecap="round" stroke-linejoin="round"/>
</svg>
