<svg width="166" height="193" viewBox="0 0 166 193" fill="none" xmlns="http://www.w3.org/2000/svg">
<path d="M71.6408 91.2505C108.365 57.6317 130.469 42.3504 165.205 42.3504C99.5229 -33.4447 28.3675 10.7691 1 42.3504C18.6212 58.6504 57.4191 91.2505 71.6408 91.2505Z" fill="#CF83B1" stroke="#A56A8D" stroke-linecap="round" stroke-linejoin="round"/>
<path d="M71.3328 91.7326C58.6661 88.5659 32.1003 80.2326 13.3003 54.2326C-10.1997 21.7326 58.0382 34.5301 77.3003 51.2326C88.8208 61.2222 75.3607 15.827 137.14 46.6363C137.209 46.6639 137.273 46.6959 137.333 46.7326C137.268 46.7004 137.204 46.6683 137.14 46.6363C131.196 44.2613 90.9387 75.5865 71.3328 91.7326Z" fill="#738D6F"/>
</svg>
