<svg width="167" height="193" viewBox="0 0 167 193" fill="none" xmlns="http://www.w3.org/2000/svg">
<path d="M165.895 26.2803C165.895 26.2803 160.349 56.9558 151.309 77.2326C130.584 123.722 64.7352 174.664 64.7352 174.664C64.7352 174.664 17.851 113.912 11.3332 66.1039C8.33354 44.1017 11.3332 9.24259 11.3332 9.24259C65.4297 -12.5657 136.914 11.5143 165.895 26.2803Z" fill="#BBAB71" stroke="#615B47" stroke-linecap="round" stroke-linejoin="round"/>
<path d="M56.2203 32.7326C24.6203 24.3326 19.0536 50.2326 20.2203 64.2326C26.0536 80.8992 40.1203 112.633 49.7203 106.233C61.7203 98.2326 74.7203 101.233 106.72 106.233C138.72 111.233 124.22 82.7326 141.22 76.7326C158.22 70.7326 126.22 36.2325 106.72 42.2325C87.2203 48.2325 95.7203 43.2326 56.2203 32.7326Z" fill="#7E9256"/>
</svg>
