<svg width="149" height="163" viewBox="0 0 149 163" fill="none" xmlns="http://www.w3.org/2000/svg">
<path d="M7.55005 55.5L27.05 123M27.05 43L34.55 131.5M29.55 32.5V131.5M44.55 60.5L39.55 139M55.55 77.5L44.55 143.5M85.05 60.5L54.2259 145.5M52.05 151.5L54.2259 145.5M137.05 40.5L60.05 154M106.55 30L65.8166 145.5M69.05 20.5L52.05 143.5M58.05 8.5L54.2259 145.5M60.05 39L55.55 158.5" stroke="#97CA8E" stroke-width="0.5" stroke-linecap="round" stroke-linejoin="round"/>
<path d="M4.546 48.6755C2.76201 50.5361 6.29804 53.1295 7.17405 53.8148L8.05007 54.5L8.92604 53.8148C9.8021 53.1295 13.3381 50.5361 11.5541 48.6755C10.24 47.3051 8.19605 48.3329 8.05005 49.0181C7.90404 48.3329 5.86005 47.305 4.546 48.6755Z" fill="#9CCB7F"/>
<path d="M8.05005 49.0181C7.90404 48.3329 5.86005 47.305 4.546 48.6755C2.76201 50.5361 6.29804 53.1295 7.17405 53.8148L8.05007 54.5L8.92604 53.8148C9.8021 53.1295 13.3381 50.5361 11.5541 48.6755C10.24 47.3051 8.19605 48.3329 8.05005 49.0181ZM8.05005 49.0181C7.90405 49.475 7.69966 50.5942 8.05007 51.4165" stroke="#55794F" stroke-width="0.1" stroke-linecap="round" stroke-linejoin="round"/>
<path d="M0.881458 51.653C3.17142 50.2035 6.36332 53.0765 7.20668 53.7883L8.05005 54.5L7.20669 55.2117C6.36332 55.9235 3.17143 58.7965 0.881464 57.347C-0.80527 56.2794 0.459786 54.6186 1.30315 54.5C0.459786 54.3814 -0.805276 52.7206 0.881458 51.653Z" fill="#9CCB7F"/>
<path d="M1.30315 54.5C0.459786 54.3814 -0.805276 52.7206 0.881458 51.653C3.17142 50.2035 6.36332 53.0765 7.20668 53.7883L8.05005 54.5L7.20669 55.2117C6.36332 55.9235 3.17143 58.7965 0.881464 57.347C-0.80527 56.2794 0.459786 54.6186 1.30315 54.5ZM1.30315 54.5C1.86539 54.3814 3.24288 54.2153 4.25492 54.5" stroke="#55794F" stroke-width="0.1" stroke-linecap="round" stroke-linejoin="round"/>
<path d="M4.546 60.3245C2.76201 58.4639 6.29804 55.8705 7.17405 55.1852L8.05007 54.5L8.92604 55.1852C9.8021 55.8705 13.3381 58.4639 11.5541 60.3245C10.24 61.6949 8.19605 60.6671 8.05005 59.9819C7.90404 60.6671 5.86005 61.695 4.546 60.3245Z" fill="#9CCB7F"/>
<path d="M8.05005 59.9819C7.90404 60.6671 5.86005 61.695 4.546 60.3245C2.76201 58.4639 6.29804 55.8705 7.17405 55.1852L8.05007 54.5L8.92604 55.1852C9.8021 55.8705 13.3381 58.4639 11.5541 60.3245C10.24 61.6949 8.19605 60.6671 8.05005 59.9819ZM8.05005 59.9819C7.90405 59.525 7.69966 58.4058 8.05007 57.5835" stroke="#55794F" stroke-width="0.1" stroke-linecap="round" stroke-linejoin="round"/>
<path d="M15.2186 51.653C12.9287 50.2035 9.73677 53.0765 8.89342 53.7883L8.05005 54.5L8.89341 55.2117C9.73677 55.9235 12.9287 58.7965 15.2186 57.347C16.9054 56.2794 15.6403 54.6186 14.7969 54.5C15.6403 54.3814 16.9054 52.7206 15.2186 51.653Z" fill="#9CCB7F"/>
<path d="M14.7969 54.5C15.6403 54.3814 16.9054 52.7206 15.2186 51.653C12.9287 50.2035 9.73677 53.0765 8.89342 53.7883L8.05005 54.5L8.89341 55.2117C9.73677 55.9235 12.9287 58.7965 15.2186 57.347C16.9054 56.2794 15.6403 54.6186 14.7969 54.5ZM14.7969 54.5C14.2347 54.3814 12.8572 54.2153 11.8452 54.5" stroke="#55794F" stroke-width="0.1" stroke-linecap="round" stroke-linejoin="round"/>
<path d="M45.0297 53.9398C42.5255 54.5506 44.1145 58.6377 44.4852 59.6863L44.8559 60.7349L45.9629 60.6276C47.0699 60.5203 51.4455 60.2327 50.9405 57.7049C50.5685 55.8431 48.2923 55.6118 47.801 56.1113C48.046 55.455 46.8743 53.4899 45.0297 53.9398Z" fill="#9CCB7F"/>
<path d="M47.801 56.1113C48.046 55.455 46.8743 53.4899 45.0297 53.9398C42.5255 54.5506 44.1145 58.6377 44.4852 59.6863L44.8559 60.7349L45.9629 60.6276C47.0699 60.5203 51.4455 60.2327 50.9405 57.7049C50.5685 55.8431 48.2923 55.6118 47.801 56.1113ZM47.801 56.1113C47.4325 56.4182 46.6588 57.2524 46.5126 58.1341" stroke="#55794F" stroke-width="0.1" stroke-linecap="round" stroke-linejoin="round"/>
<path d="M40.3393 54.4823C43.0495 54.49 44.1981 58.628 44.527 59.6815L44.8559 60.7349L43.7622 60.8821C42.6685 61.0293 38.4328 61.7376 37.2802 59.2847C36.4312 57.4781 38.3904 56.757 39.1654 57.1101C38.5179 56.5569 38.3431 54.4765 40.3393 54.4823Z" fill="#9CCB7F"/>
<path d="M39.1654 57.1101C38.5179 56.5569 38.3431 54.4765 40.3393 54.4823C43.0495 54.49 44.1981 58.628 44.527 59.6815L44.8559 60.7349L43.7622 60.8821C42.6685 61.0293 38.4328 61.7376 37.2802 59.2847C36.4312 57.4781 38.3904 56.757 39.1654 57.1101ZM39.1654 57.1101C39.7034 57.3121 40.9544 57.9121 41.655 58.6959" stroke="#55794F" stroke-width="0.1" stroke-linecap="round" stroke-linejoin="round"/>
<path d="M38.7713 63.7648C38.2663 61.237 42.642 60.9494 43.749 60.8422L44.856 60.7349L45.2266 61.7834C45.5974 62.832 47.1864 66.9191 44.6821 67.5299C42.8375 67.9798 41.6658 66.0147 41.9108 65.3583C41.4195 65.8578 39.1433 65.6266 38.7713 63.7648Z" fill="#9CCB7F"/>
<path d="M41.9108 65.3583C41.4195 65.8578 39.1433 65.6266 38.7713 63.7648C38.2663 61.237 42.642 60.9494 43.749 60.8422L44.856 60.7349L45.2266 61.7834C45.5974 62.832 47.1864 66.9191 44.6821 67.5299C42.8375 67.9798 41.6658 66.0147 41.9108 65.3583ZM41.9108 65.3583C42.0331 64.8946 42.462 63.8408 43.1993 63.3356" stroke="#55794F" stroke-width="0.1" stroke-linecap="round" stroke-linejoin="round"/>
<path d="M52.4316 62.185C51.279 59.7321 47.0433 60.4404 45.9496 60.5877L44.8559 60.7349L45.1848 61.7883C45.5137 62.8417 46.6623 66.9797 49.3725 66.9875C51.3687 66.9932 51.194 64.9128 50.5464 64.3597C51.3214 64.7127 53.2807 63.9917 52.4316 62.185Z" fill="#9CCB7F"/>
<path d="M50.5464 64.3597C51.3214 64.7127 53.2807 63.9917 52.4316 62.185C51.279 59.7321 47.0433 60.4404 45.9496 60.5877L44.8559 60.7349L45.1848 61.7883C45.5137 62.8417 46.6623 66.9797 49.3725 66.9875C51.3687 66.9932 51.194 64.9128 50.5464 64.3597ZM50.5464 64.3597C50.1359 63.9575 49.0633 63.0774 48.0568 62.7738" stroke="#55794F" stroke-width="0.1" stroke-linecap="round" stroke-linejoin="round"/>
<path d="M51.546 70.6755C49.762 72.5361 53.298 75.1295 54.1741 75.8148L55.0501 76.5L55.926 75.8148C56.8021 75.1295 60.3381 72.5361 58.5541 70.6755C57.24 69.3051 55.196 70.3329 55.05 71.0181C54.904 70.3329 52.86 69.305 51.546 70.6755Z" fill="#9CCB7F"/>
<path d="M55.05 71.0181C54.904 70.3329 52.86 69.305 51.546 70.6755C49.762 72.5361 53.298 75.1295 54.1741 75.8148L55.0501 76.5L55.926 75.8148C56.8021 75.1295 60.3381 72.5361 58.5541 70.6755C57.24 69.3051 55.196 70.3329 55.05 71.0181ZM55.05 71.0181C54.9041 71.475 54.6997 72.5942 55.0501 73.4165" stroke="#55794F" stroke-width="0.1" stroke-linecap="round" stroke-linejoin="round"/>
<path d="M47.8815 73.653C50.1714 72.2035 53.3633 75.0765 54.2067 75.7883L55.05 76.5L54.2067 77.2117C53.3633 77.9235 50.1714 80.7965 47.8815 79.347C46.1947 78.2794 47.4598 76.6186 48.3031 76.5C47.4598 76.3814 46.1947 74.7206 47.8815 73.653Z" fill="#9CCB7F"/>
<path d="M48.3031 76.5C47.4598 76.3814 46.1947 74.7206 47.8815 73.653C50.1714 72.2035 53.3633 75.0765 54.2067 75.7883L55.05 76.5L54.2067 77.2117C53.3633 77.9235 50.1714 80.7965 47.8815 79.347C46.1947 78.2794 47.4598 76.6186 48.3031 76.5ZM48.3031 76.5C48.8654 76.3814 50.2429 76.2153 51.2549 76.5" stroke="#55794F" stroke-width="0.1" stroke-linecap="round" stroke-linejoin="round"/>
<path d="M51.546 82.3245C49.762 80.4639 53.298 77.8705 54.1741 77.1852L55.0501 76.5L55.926 77.1852C56.8021 77.8705 60.3381 80.4639 58.5541 82.3245C57.24 83.6949 55.196 82.6671 55.05 81.9819C54.904 82.6671 52.86 83.695 51.546 82.3245Z" fill="#9CCB7F"/>
<path d="M55.05 81.9819C54.904 82.6671 52.86 83.695 51.546 82.3245C49.762 80.4639 53.298 77.8705 54.1741 77.1852L55.0501 76.5L55.926 77.1852C56.8021 77.8705 60.3381 80.4639 58.5541 82.3245C57.24 83.6949 55.196 82.6671 55.05 81.9819ZM55.05 81.9819C54.9041 81.525 54.6997 80.4058 55.0501 79.5835" stroke="#55794F" stroke-width="0.1" stroke-linecap="round" stroke-linejoin="round"/>
<path d="M62.2186 73.653C59.9287 72.2035 56.7368 75.0765 55.8934 75.7883L55.05 76.5L55.8934 77.2117C56.7368 77.9235 59.9287 80.7965 62.2186 79.347C63.9054 78.2794 62.6403 76.6186 61.7969 76.5C62.6403 76.3814 63.9054 74.7206 62.2186 73.653Z" fill="#9CCB7F"/>
<path d="M61.7969 76.5C62.6403 76.3814 63.9054 74.7206 62.2186 73.653C59.9287 72.2035 56.7368 75.0765 55.8934 75.7883L55.05 76.5L55.8934 77.2117C56.7368 77.9235 59.9287 80.7965 62.2186 79.347C63.9054 78.2794 62.6403 76.6186 61.7969 76.5ZM61.7969 76.5C61.2347 76.3814 59.8572 76.2153 58.8452 76.5" stroke="#55794F" stroke-width="0.1" stroke-linecap="round" stroke-linejoin="round"/>
<path d="M30.2391 24.968C27.7197 25.5135 29.2019 29.6405 29.5453 30.6984L29.8886 31.7563L30.9979 31.6778C32.1074 31.5993 36.489 31.4256 36.0499 28.8856C35.7264 27.0147 33.4571 26.7244 32.9529 27.2109C33.2149 26.5611 32.0947 24.5663 30.2391 24.968Z" fill="#9CCB7F"/>
<path d="M32.9529 27.2109C33.2149 26.5611 32.0947 24.5663 30.2391 24.968C27.7197 25.5135 29.2019 29.6405 29.5453 30.6984L29.8886 31.7563L30.9979 31.6778C32.1074 31.5993 36.489 31.4256 36.0499 28.8856C35.7264 27.0147 33.4571 26.7244 32.9529 27.2109ZM32.9529 27.2109C32.5765 27.5081 31.7814 28.3218 31.6123 29.1995" stroke="#55794F" stroke-width="0.1" stroke-linecap="round" stroke-linejoin="round"/>
<path d="M25.5361 25.3883C28.2452 25.4665 29.2857 29.633 29.5871 30.6947L29.8885 31.7563L28.7914 31.875C27.6942 31.9937 23.4416 32.5916 22.3531 30.1096C21.5514 28.2815 23.5287 27.6116 24.2943 27.9847C23.6613 27.4149 23.5407 25.3307 25.5361 25.3883Z" fill="#9CCB7F"/>
<path d="M24.2943 27.9847C23.6613 27.4149 23.5407 25.3307 25.5361 25.3883C28.2452 25.4665 29.2857 29.633 29.5871 30.6947L29.8885 31.7563L28.7914 31.875C27.6942 31.9937 23.4416 32.5916 22.3531 30.1096C21.5514 28.2815 23.5287 27.6116 24.2943 27.9847ZM24.2943 27.9847C24.8268 28.2006 26.0618 28.833 26.7418 29.6348" stroke="#55794F" stroke-width="0.1" stroke-linecap="round" stroke-linejoin="round"/>
<path d="M23.7272 34.6269C23.2881 32.0869 27.6698 31.9132 28.7792 31.8347L29.8886 31.7563L30.2318 32.8141C30.5752 33.872 32.0574 37.999 29.538 38.5445C27.6824 38.9463 26.5622 36.9514 26.8242 36.3016C26.32 36.7882 24.0507 36.4978 23.7272 34.6269Z" fill="#9CCB7F"/>
<path d="M26.8242 36.3016C26.32 36.7882 24.0507 36.4978 23.7272 34.6269C23.2881 32.0869 27.6698 31.9132 28.7792 31.8347L29.8886 31.7563L30.2318 32.8141C30.5752 33.872 32.0574 37.999 29.538 38.5445C27.6824 38.9463 26.5622 36.9514 26.8242 36.3016ZM26.8242 36.3016C26.9585 35.8412 27.4146 34.799 28.1648 34.313" stroke="#55794F" stroke-width="0.1" stroke-linecap="round" stroke-linejoin="round"/>
<path d="M37.424 33.4029C36.3355 30.921 32.0829 31.5189 30.9857 31.6376L29.8885 31.7563L30.19 32.8179C30.4913 33.8795 31.5319 38.046 34.241 38.1242C36.2364 38.1819 36.1158 36.0977 35.4828 35.5279C36.2484 35.9009 38.2257 35.2311 37.424 33.4029Z" fill="#9CCB7F"/>
<path d="M35.4828 35.5279C36.2484 35.9009 38.2257 35.2311 37.424 33.4029C36.3355 30.921 32.0829 31.5189 30.9857 31.6376L29.8885 31.7563L30.19 32.8179C30.4913 33.8795 31.5319 38.046 34.241 38.1242C36.2364 38.1819 36.1158 36.0977 35.4828 35.5279ZM35.4828 35.5279C35.0829 35.1152 34.0336 34.2075 33.0353 33.8778" stroke="#55794F" stroke-width="0.1" stroke-linecap="round" stroke-linejoin="round"/>
<path d="M54.3871 17.625C56.8904 18.2397 57.3684 13.8807 57.5238 12.7795L57.6792 11.6782L56.6478 11.2622C55.6163 10.8461 51.6024 9.08057 50.8831 11.5559C50.3532 13.3791 52.2654 14.6353 52.9318 14.4191C52.4114 14.8882 52.5432 17.1723 54.3871 17.625Z" fill="#9CCB7F"/>
<path d="M52.9318 14.4191C52.4114 14.8882 52.5432 17.1723 54.3871 17.625C56.8904 18.2397 57.3684 13.8807 57.5238 12.7795L57.6792 11.6782L56.6478 11.2622C55.6163 10.8461 51.6024 9.08057 50.8831 11.5559C50.3532 13.3791 52.2654 14.6353 52.9318 14.4191ZM52.9318 14.4191C53.4004 14.3172 54.4719 13.9346 55.0088 13.22" stroke="#55794F" stroke-width="0.1" stroke-linecap="round" stroke-linejoin="round"/>
<path d="M58.7979 19.3099C56.3976 18.0515 57.2898 13.8507 57.4845 12.7645L57.6792 11.6782L58.7173 12.0527C59.7554 12.4272 63.8394 13.755 63.7291 16.4629C63.6478 18.4575 61.5771 18.1923 61.0527 17.5212C61.3716 18.3109 60.5659 20.2368 58.7979 19.3099Z" fill="#9CCB7F"/>
<path d="M61.0527 17.5212C61.3716 18.3109 60.5659 20.2368 58.7979 19.3099C56.3976 18.0515 57.2898 13.8507 57.4845 12.7645L57.6792 11.6782L58.7173 12.0527C59.7554 12.4272 63.8394 13.755 63.7291 16.4629C63.6478 18.4575 61.5771 18.1923 61.0527 17.5212ZM61.0527 17.5212C60.6688 17.0936 59.8362 15.9837 59.5768 14.9649" stroke="#55794F" stroke-width="0.1" stroke-linecap="round" stroke-linejoin="round"/>
<path d="M64.4754 11.8006C63.756 14.2758 59.742 12.5103 58.7106 12.0942L57.6792 11.6782L57.8346 10.577C57.99 9.47565 58.468 5.11669 60.9713 5.73138C62.8152 6.18414 62.947 8.46822 62.4266 8.93728C63.093 8.7211 65.0052 9.97732 64.4754 11.8006Z" fill="#9CCB7F"/>
<path d="M62.4266 8.93728C63.093 8.7211 65.0052 9.97732 64.4754 11.8006C63.756 14.2758 59.742 12.5103 58.7106 12.0942L57.6792 11.6782L57.8346 10.577C57.99 9.47565 58.468 5.11669 60.9713 5.73138C62.8152 6.18414 62.947 8.46822 62.4266 8.93728ZM62.4266 8.93728C62.104 9.29212 61.2369 10.0287 60.3496 10.1364" stroke="#55794F" stroke-width="0.1" stroke-linecap="round" stroke-linejoin="round"/>
<path d="M51.6293 6.89354C51.519 9.60145 55.6031 10.9292 56.6411 11.3037L57.6792 11.6782L57.8739 10.592C58.0687 9.50569 58.9608 5.30493 56.5605 4.04651C54.7925 3.11959 53.9868 5.04553 54.3058 5.83522C53.7813 5.16416 51.7106 4.89895 51.6293 6.89354Z" fill="#9CCB7F"/>
<path d="M54.3058 5.83522C53.7813 5.16416 51.7106 4.89895 51.6293 6.89354C51.519 9.60145 55.6031 10.9292 56.6411 11.3037L57.6792 11.6782L57.8739 10.592C58.0687 9.50569 58.9608 5.30493 56.5605 4.04651C54.7925 3.11959 53.9868 5.04553 54.3058 5.83522ZM54.3058 5.83522C54.4841 6.38144 55.0291 7.65742 55.7817 8.39151" stroke="#55794F" stroke-width="0.1" stroke-linecap="round" stroke-linejoin="round"/>
<path d="M100.236 35.4527C102.335 36.9495 104.391 33.0762 104.942 32.1104L105.494 31.1447L104.69 30.3768C103.885 29.6088 100.808 26.4841 99.2248 28.518C98.0583 30.0161 99.3704 31.8903 100.07 31.9359C99.4126 32.1793 98.6905 34.3502 100.236 35.4527Z" fill="#9CCB7F"/>
<path d="M100.07 31.9359C99.4126 32.1793 98.6905 34.3502 100.236 35.4527C102.335 36.9495 104.391 33.0762 104.942 32.1104L105.494 31.1447L104.69 30.3768C103.885 29.6088 100.808 26.4841 99.2248 28.518C98.0583 30.0161 99.3704 31.8903 100.07 31.9359ZM100.07 31.9359C100.543 32.0144 101.68 32.0551 102.443 31.5897" stroke="#55794F" stroke-width="0.1" stroke-linecap="round" stroke-linejoin="round"/>
<path d="M103.711 38.6491C101.947 36.5924 104.329 33.0192 104.911 32.082L105.494 31.1447L106.32 31.8765C107.146 32.6083 110.45 35.3521 109.346 37.8273C108.533 39.6505 106.707 38.6384 106.468 37.8209C106.472 38.6726 105.011 40.1641 103.711 38.6491Z" fill="#9CCB7F"/>
<path d="M106.468 37.8209C106.472 38.6726 105.011 40.1641 103.711 38.6491C101.947 36.5924 104.329 33.0192 104.911 32.082L105.494 31.1447L106.32 31.8765C107.146 32.6083 110.45 35.3521 109.346 37.8273C108.533 39.6505 106.707 38.6384 106.468 37.8209ZM106.468 37.8209C106.269 37.2817 105.906 35.9426 106.042 34.9001" stroke="#55794F" stroke-width="0.1" stroke-linecap="round" stroke-linejoin="round"/>
<path d="M111.763 33.7714C110.18 35.8053 107.103 32.6806 106.299 31.9126L105.494 31.1447L106.046 30.179C106.597 29.2132 108.653 25.3399 110.752 26.8367C112.298 27.9392 111.575 30.1101 110.918 30.3535C111.618 30.3991 112.93 32.2733 111.763 33.7714Z" fill="#9CCB7F"/>
<path d="M110.918 30.3535C111.618 30.3991 112.93 32.2733 111.763 33.7714C110.18 35.8053 107.103 32.6806 106.299 31.9126L105.494 31.1447L106.046 30.179C106.597 29.2132 108.653 25.3399 110.752 26.8367C112.298 27.9392 111.575 30.1101 110.918 30.3535ZM110.918 30.3535C110.488 30.5639 109.41 30.9277 108.545 30.6996" stroke="#55794F" stroke-width="0.1" stroke-linecap="round" stroke-linejoin="round"/>
<path d="M101.642 24.4621C100.538 26.9373 103.842 29.6811 104.668 30.4129L105.494 31.1447L106.077 30.2075C106.659 29.2702 109.041 25.6971 107.277 23.6403C105.977 22.1253 104.516 23.6168 104.52 24.4684C104.281 23.651 102.455 22.6389 101.642 24.4621Z" fill="#9CCB7F"/>
<path d="M104.52 24.4684C104.281 23.651 102.455 22.6389 101.642 24.4621C100.538 26.9373 103.842 29.6811 104.668 30.4129L105.494 31.1447L106.077 30.2075C106.659 29.2702 109.041 25.6971 107.277 23.6403C105.977 22.1253 104.516 23.6168 104.52 24.4684ZM104.52 24.4684C104.484 25.0419 104.518 26.429 104.946 27.3893" stroke="#55794F" stroke-width="0.1" stroke-linecap="round" stroke-linejoin="round"/>
<path d="M129.049 41.1925C129.691 43.6889 133.758 42.0486 134.802 41.6648L135.846 41.2809L135.725 40.1754C135.603 39.0698 135.261 34.6981 132.74 35.2349C130.883 35.6302 130.68 37.9091 131.186 38.3941C130.526 38.1574 128.576 39.3537 129.049 41.1925Z" fill="#9CCB7F"/>
<path d="M131.186 38.3941C130.526 38.1574 128.576 39.3537 129.049 41.1925C129.691 43.6889 133.758 42.0486 134.802 41.6648L135.846 41.2809L135.725 40.1754C135.603 39.0698 135.261 34.6981 132.74 35.2349C130.883 35.6302 130.68 37.9091 131.186 38.3941ZM131.186 38.3941C131.497 38.7588 132.341 39.5219 133.224 39.6571" stroke="#55794F" stroke-width="0.1" stroke-linecap="round" stroke-linejoin="round"/>
<path d="M129.65 45.8757C129.624 43.1657 133.747 41.9652 134.797 41.6231L135.846 41.281L136.007 42.3727C136.168 43.4645 136.929 47.6909 134.491 48.8743C132.695 49.7459 131.949 47.7959 132.293 47.0165C131.748 47.671 129.67 47.8718 129.65 45.8757Z" fill="#9CCB7F"/>
<path d="M132.293 47.0165C131.748 47.671 129.67 47.8718 129.65 45.8757C129.624 43.1657 133.747 41.9652 134.797 41.6231L135.846 41.281L136.007 42.3727C136.168 43.4645 136.929 47.6909 134.491 48.8743C132.695 49.7459 131.949 47.7959 132.293 47.0165ZM132.293 47.0165C132.488 46.4761 133.072 45.2176 133.847 44.5072" stroke="#55794F" stroke-width="0.1" stroke-linecap="round" stroke-linejoin="round"/>
<path d="M138.952 47.327C136.431 47.8638 136.088 43.492 135.967 42.3865L135.846 41.2809L136.89 40.8971C137.934 40.5132 142 38.873 142.643 41.3694C143.116 43.2082 141.165 44.4045 140.506 44.1678C141.012 44.6528 140.809 46.9317 138.952 47.327Z" fill="#9CCB7F"/>
<path d="M140.506 44.1678C141.012 44.6528 140.809 46.9317 138.952 47.327C136.431 47.8638 136.088 43.492 135.967 42.3865L135.846 41.2809L136.89 40.8971C137.934 40.5132 142 38.873 142.643 41.3694C143.116 43.2082 141.165 44.4045 140.506 44.1678ZM140.506 44.1678C140.041 44.0513 138.982 43.6357 138.467 42.9048" stroke="#55794F" stroke-width="0.1" stroke-linecap="round" stroke-linejoin="round"/>
<path d="M137.201 33.6876C134.762 34.871 135.524 39.0974 135.685 40.1892L135.846 41.281L136.895 40.9388C137.944 40.5967 142.067 39.3962 142.041 36.6862C142.022 34.6901 139.944 34.8909 139.399 35.5454C139.742 34.766 138.997 32.816 137.201 33.6876Z" fill="#9CCB7F"/>
<path d="M139.399 35.5454C139.742 34.766 138.997 32.816 137.201 33.6876C134.762 34.871 135.524 39.0974 135.685 40.1892L135.846 41.281L136.895 40.9388C137.944 40.5967 142.067 39.3962 142.041 36.6862C142.022 34.6901 139.944 34.8909 139.399 35.5454ZM139.399 35.5454C139.002 35.9609 138.135 37.0444 137.844 38.0547" stroke="#55794F" stroke-width="0.1" stroke-linecap="round" stroke-linejoin="round"/>
<path d="M19.2474 46.504C20.8863 48.4936 23.8759 45.2856 24.659 44.4958L25.4421 43.7061L24.8642 42.7559C24.2862 41.8056 22.1247 37.9903 20.068 39.5441C18.5531 40.6887 19.3345 42.839 19.998 43.0642C19.3004 43.129 18.0402 45.0385 19.2474 46.504Z" fill="#9CCB7F"/>
<path d="M19.998 43.0642C19.3004 43.129 18.0402 45.0385 19.2474 46.504C20.8863 48.4936 23.8759 45.2856 24.659 44.4958L25.4421 43.7061L24.8642 42.7559C24.2862 41.8056 22.1247 37.9903 20.068 39.5441C18.5531 40.6887 19.3345 42.839 19.998 43.0642ZM19.998 43.0642C20.4345 43.2627 21.5221 43.5967 22.3798 43.345" stroke="#55794F" stroke-width="0.1" stroke-linecap="round" stroke-linejoin="round"/>
<path d="M21.7753 50.492C20.6039 48.0481 23.8309 45.2145 24.6365 44.4603L25.4422 43.7061L26.0502 44.627C26.6584 45.5479 29.1378 49.0543 27.4302 51.1588C26.1723 52.7089 24.6711 51.2581 24.6521 50.4066C24.4355 51.2303 22.6381 52.2922 21.7753 50.492Z" fill="#9CCB7F"/>
<path d="M24.6521 50.4066C24.4355 51.2303 22.6381 52.2922 21.7753 50.492C20.6039 48.0481 23.8309 45.2145 24.6365 44.4603L25.4422 43.7061L26.0502 44.627C26.6584 45.5479 29.1378 49.0543 27.4302 51.1588C26.1723 52.7089 24.6711 51.2581 24.6521 50.4066ZM24.6521 50.4066C24.6001 49.8343 24.5965 48.4469 24.9978 47.4751" stroke="#55794F" stroke-width="0.1" stroke-linecap="round" stroke-linejoin="round"/>
<path d="M30.8162 47.8681C28.7595 49.4219 26.5979 45.6065 26.02 44.6563L25.4421 43.7061L26.2252 42.9164C27.0083 42.1266 29.9979 38.9186 31.6368 40.9082C32.844 42.3737 31.5838 44.2833 30.8862 44.348C31.5496 44.5733 32.3311 46.7236 30.8162 47.8681Z" fill="#9CCB7F"/>
<path d="M30.8862 44.348C31.5496 44.5733 32.3311 46.7236 30.8162 47.8681C28.7595 49.4219 26.5979 45.6065 26.02 44.6563L25.4421 43.7061L26.2252 42.9164C27.0083 42.1266 29.9979 38.9186 31.6368 40.9082C32.844 42.3737 31.5838 44.2833 30.8862 44.348ZM30.8862 44.348C30.4154 44.4395 29.28 44.5114 28.5044 44.0672" stroke="#55794F" stroke-width="0.1" stroke-linecap="round" stroke-linejoin="round"/>
<path d="M23.4541 36.2535C21.7464 38.3579 24.2259 41.8643 24.834 42.7852L25.4421 43.7061L26.2477 42.9519C27.0534 42.1977 30.2803 39.3642 29.109 36.9202C28.2462 35.1201 26.4487 36.182 26.2321 37.0056C26.2131 36.1542 24.7119 34.7034 23.4541 36.2535Z" fill="#9CCB7F"/>
<path d="M26.2321 37.0056C26.2131 36.1542 24.7119 34.7034 23.4541 36.2535C21.7464 38.3579 24.2259 41.8643 24.834 42.7852L25.4421 43.7061L26.2477 42.9519C27.0534 42.1977 30.2803 39.3642 29.109 36.9202C28.2462 35.1201 26.4487 36.182 26.2321 37.0056ZM26.2321 37.0056C26.0485 37.5501 25.7223 38.8987 25.8865 39.9371" stroke="#55794F" stroke-width="0.1" stroke-linecap="round" stroke-linejoin="round"/>
<path d="M77.2474 64.504C78.8863 66.4936 81.8759 63.2856 82.659 62.4958L83.4421 61.7061L82.8642 60.7559C82.2862 59.8056 80.1247 55.9903 78.068 57.5441C76.5531 58.6887 77.3345 60.839 77.998 61.0642C77.3004 61.129 76.0402 63.0385 77.2474 64.504Z" fill="#9CCB7F"/>
<path d="M77.998 61.0642C77.3004 61.129 76.0402 63.0385 77.2474 64.504C78.8863 66.4936 81.8759 63.2856 82.659 62.4958L83.4421 61.7061L82.8642 60.7559C82.2862 59.8056 80.1247 55.9903 78.068 57.5441C76.5531 58.6887 77.3345 60.839 77.998 61.0642ZM77.998 61.0642C78.4345 61.2627 79.5221 61.5967 80.3798 61.345" stroke="#55794F" stroke-width="0.1" stroke-linecap="round" stroke-linejoin="round"/>
<path d="M79.7753 68.492C78.6039 66.0481 81.8309 63.2145 82.6365 62.4603L83.4422 61.7061L84.0502 62.627C84.6584 63.5479 87.1378 67.0543 85.4302 69.1588C84.1723 70.7089 82.6711 69.2581 82.6521 68.4066C82.4355 69.2303 80.6381 70.2922 79.7753 68.492Z" fill="#9CCB7F"/>
<path d="M82.6521 68.4066C82.4355 69.2303 80.6381 70.2922 79.7753 68.492C78.6039 66.0481 81.8309 63.2145 82.6365 62.4603L83.4422 61.7061L84.0502 62.627C84.6584 63.5479 87.1378 67.0543 85.4302 69.1588C84.1723 70.7089 82.6711 69.2581 82.6521 68.4066ZM82.6521 68.4066C82.6001 67.8343 82.5965 66.4469 82.9978 65.4751" stroke="#55794F" stroke-width="0.1" stroke-linecap="round" stroke-linejoin="round"/>
<path d="M88.8162 65.8681C86.7595 67.4219 84.5979 63.6065 84.02 62.6563L83.4421 61.7061L84.2252 60.9164C85.0083 60.1266 87.9979 56.9186 89.6368 58.9082C90.844 60.3737 89.5838 62.2833 88.8862 62.348C89.5496 62.5733 90.3311 64.7236 88.8162 65.8681Z" fill="#9CCB7F"/>
<path d="M88.8862 62.348C89.5496 62.5733 90.3311 64.7236 88.8162 65.8681C86.7595 67.4219 84.5979 63.6065 84.02 62.6563L83.4421 61.7061L84.2252 60.9164C85.0083 60.1266 87.9979 56.9186 89.6368 58.9082C90.844 60.3737 89.5838 62.2833 88.8862 62.348ZM88.8862 62.348C88.4154 62.4395 87.28 62.5114 86.5044 62.0672" stroke="#55794F" stroke-width="0.1" stroke-linecap="round" stroke-linejoin="round"/>
<path d="M81.4541 54.2535C79.7464 56.3579 82.2259 59.8643 82.834 60.7852L83.4421 61.7061L84.2477 60.9519C85.0534 60.1977 88.2803 57.3642 87.109 54.9202C86.2462 53.1201 84.4487 54.182 84.2321 55.0056C84.2131 54.1542 82.7119 52.7034 81.4541 54.2535Z" fill="#9CCB7F"/>
<path d="M84.2321 55.0056C84.2131 54.1542 82.7119 52.7034 81.4541 54.2535C79.7464 56.3579 82.2259 59.8643 82.834 60.7852L83.4421 61.7061L84.2477 60.9519C85.0534 60.1977 88.2803 57.3642 87.109 54.9202C86.2462 53.1201 84.4487 54.182 84.2321 55.0056ZM84.2321 55.0056C84.0485 55.5501 83.7223 56.8987 83.8865 57.9371" stroke="#55794F" stroke-width="0.1" stroke-linecap="round" stroke-linejoin="round"/>
<path d="M60.827 21.3925C61.5885 23.8551 65.5718 22.0212 66.5959 21.5876L67.6201 21.154L67.4459 20.0556C67.2717 18.9571 66.7194 14.607 64.2269 15.2643C62.391 15.7485 62.2982 18.0345 62.8266 18.4946C62.1565 18.2899 60.2661 19.5786 60.827 21.3925Z" fill="#9CCB7F"/>
<path d="M62.8266 18.4946C62.1565 18.2899 60.2661 19.5786 60.827 21.3925C61.5885 23.8551 65.5718 22.0212 66.5959 21.5876L67.6201 21.154L67.4459 20.0556C67.2717 18.9571 66.7194 14.607 64.2269 15.2643C62.391 15.7485 62.2982 18.0345 62.8266 18.4946ZM62.8266 18.4946C63.1552 18.8439 64.0347 19.5656 64.9238 19.6581" stroke="#55794F" stroke-width="0.1" stroke-linecap="round" stroke-linejoin="round"/>
<path d="M61.6528 26.0414C61.4963 23.3357 65.557 21.9384 66.5886 21.5462L67.6201 21.1541L67.8333 22.2368C68.0466 23.3196 69.0104 27.5045 66.6319 28.8037C64.88 29.7607 64.0415 27.8488 64.3469 27.0538C63.8341 27.7337 61.7681 28.0343 61.6528 26.0414Z" fill="#9CCB7F"/>
<path d="M64.3469 27.0538C63.8341 27.7337 61.7681 28.0343 61.6528 26.0414C61.4963 23.3357 65.557 21.9384 66.5886 21.5462L67.6201 21.1541L67.8333 22.2368C68.0466 23.3196 69.0104 27.5045 66.6319 28.8037C64.88 29.7607 64.0415 27.8488 64.3469 27.0538ZM64.3469 27.0538C64.516 26.5046 65.039 25.2195 65.779 24.4727" stroke="#55794F" stroke-width="0.1" stroke-linecap="round" stroke-linejoin="round"/>
<path d="M71.0133 27.0438C68.5209 27.7011 67.9685 23.3509 67.7943 22.2525L67.6201 21.154L68.6443 20.7205C69.6685 20.2868 73.6517 18.453 74.4132 20.9156C74.9741 22.7295 73.0837 24.0182 72.4136 23.8135C72.942 24.2736 72.8492 26.5596 71.0133 27.0438Z" fill="#9CCB7F"/>
<path d="M72.4136 23.8135C72.942 24.2736 72.8492 26.5596 71.0133 27.0438C68.5209 27.7011 67.9685 23.3509 67.7943 22.2525L67.6201 21.154L68.6443 20.7205C69.6685 20.2868 73.6517 18.453 74.4132 20.9156C74.9741 22.7295 73.0837 24.0182 72.4136 23.8135ZM72.4136 23.8135C71.9433 23.7195 70.8655 23.3553 70.3165 22.65" stroke="#55794F" stroke-width="0.1" stroke-linecap="round" stroke-linejoin="round"/>
<path d="M68.6083 13.5044C66.2299 14.8036 67.1937 18.9885 67.4069 20.0713L67.6202 21.1541L68.6517 20.7619C69.6832 20.3697 73.744 18.9724 73.5874 16.2668C73.4721 14.2738 71.4062 14.5744 70.8933 15.2543C71.1987 14.4593 70.3602 12.5474 68.6083 13.5044Z" fill="#9CCB7F"/>
<path d="M70.8933 15.2543C71.1987 14.4593 70.3602 12.5474 68.6083 13.5044C66.2299 14.8036 67.1937 18.9885 67.4069 20.0713L67.6202 21.1541L68.6517 20.7619C69.6832 20.3697 73.744 18.9724 73.5874 16.2668C73.4721 14.2738 71.4062 14.5744 70.8933 15.2543ZM70.8933 15.2543C70.5168 15.6884 69.7033 16.8124 69.4613 17.8354" stroke="#55794F" stroke-width="0.1" stroke-linecap="round" stroke-linejoin="round"/>
<path d="M60.3444 32.0734C57.8251 32.6189 59.3073 36.7459 59.6506 37.8037L59.9939 38.8616L61.1033 38.7831C62.2127 38.7047 66.5944 38.531 66.1552 35.991C65.8318 34.1201 63.5624 33.8297 63.0583 34.3163C63.3203 33.6665 62.2001 31.6716 60.3444 32.0734Z" fill="#9CCB7F"/>
<path d="M63.0583 34.3163C63.3203 33.6665 62.2001 31.6716 60.3444 32.0734C57.8251 32.6189 59.3073 36.7459 59.6506 37.8037L59.9939 38.8616L61.1033 38.7831C62.2127 38.7047 66.5944 38.531 66.1552 35.991C65.8318 34.1201 63.5624 33.8297 63.0583 34.3163ZM63.0583 34.3163C62.6819 34.6134 61.8868 35.4272 61.7176 36.3049" stroke="#55794F" stroke-width="0.1" stroke-linecap="round" stroke-linejoin="round"/>
<path d="M55.6415 32.4936C58.3505 32.5719 59.3911 36.7384 59.6925 37.8L59.9939 38.8616L58.8967 38.9803C57.7996 39.0991 53.5469 39.6969 52.4585 37.215C51.6567 35.3868 53.634 34.7169 54.3996 35.09C53.7666 34.5202 53.6461 32.436 55.6415 32.4936Z" fill="#9CCB7F"/>
<path d="M54.3996 35.09C53.7666 34.5202 53.6461 32.436 55.6415 32.4936C58.3505 32.5719 59.3911 36.7384 59.6925 37.8L59.9939 38.8616L58.8967 38.9803C57.7996 39.0991 53.5469 39.6969 52.4585 37.215C51.6567 35.3868 53.634 34.7169 54.3996 35.09ZM54.3996 35.09C54.9321 35.306 56.1671 35.9383 56.8471 36.7401" stroke="#55794F" stroke-width="0.1" stroke-linecap="round" stroke-linejoin="round"/>
<path d="M53.8325 41.7323C53.3934 39.1923 57.7751 39.0186 58.8845 38.9401L59.9939 38.8616L60.3372 39.9195C60.6805 40.9774 62.1627 45.1044 59.6434 45.6498C57.7877 46.0516 56.6675 44.0567 56.9295 43.407C56.4254 43.8935 54.156 43.6032 53.8325 41.7323Z" fill="#9CCB7F"/>
<path d="M56.9295 43.407C56.4254 43.8935 54.156 43.6032 53.8325 41.7323C53.3934 39.1923 57.7751 39.0186 58.8845 38.9401L59.9939 38.8616L60.3372 39.9195C60.6805 40.9774 62.1627 45.1044 59.6434 45.6498C57.7877 46.0516 56.6675 44.0567 56.9295 43.407ZM56.9295 43.407C57.0638 42.9466 57.52 41.9043 58.2702 41.4184" stroke="#55794F" stroke-width="0.1" stroke-linecap="round" stroke-linejoin="round"/>
<path d="M67.5293 40.5083C66.4409 38.0263 62.1882 38.6242 61.0911 38.7429L59.9939 38.8616L60.2953 39.9232C60.5967 40.9849 61.6373 45.1513 64.3463 45.2296C66.3417 45.2872 66.2211 43.203 65.5882 42.6332C66.3538 43.0063 68.3311 42.3364 67.5293 40.5083Z" fill="#9CCB7F"/>
<path d="M65.5882 42.6332C66.3538 43.0063 68.3311 42.3364 67.5293 40.5083C66.4409 38.0263 62.1882 38.6242 61.0911 38.7429L59.9939 38.8616L60.2953 39.9232C60.5967 40.9849 61.6373 45.1513 64.3463 45.2296C66.3417 45.2872 66.2211 43.203 65.5882 42.6332ZM65.5882 42.6332C65.1883 42.2205 64.139 41.3128 63.1407 40.9832" stroke="#55794F" stroke-width="0.1" stroke-linecap="round" stroke-linejoin="round"/>
</svg>
