<svg width="157" height="143" viewBox="0 0 157 143" fill="none" xmlns="http://www.w3.org/2000/svg">
<path d="M20.3291 50.0904L49.8291 129.09M9.8291 40.0904L53.3291 124.09M44.3291 59.0904L53.3291 142.09M40.8291 26.0904L55.9121 134.59M56.3291 137.59L55.9121 134.59M72.3291 84.5904L55.9121 134.59M80.3291 24.0904L56.8091 122.09M56.3291 124.09L56.8091 122.09M73.3291 11.5904L56.8091 122.09M111.829 71.0904L61.3291 134.59M116.829 54.5904L59.8291 132.09M144.829 50.0904L67.3291 134.59M115.329 20.5904L67.3291 124.09" stroke="#8BB185" stroke-width="0.5" stroke-linecap="round" stroke-linejoin="round"/>
<path d="M15.3488 43.3583C15.3488 45.108 17.7414 47.0774 18.9378 48.3791C19.1692 48.5651 19.7324 48.8254 20.1341 48.3791C21.3305 47.0774 23.7231 45.4597 23.7231 43.3583C23.7231 42.2425 21.3305 40.011 19.5359 43.3583C17.7414 40.011 15.3488 42.2425 15.3488 43.3583Z" fill="#8F4FC2" stroke="#583276" stroke-width="0.1" stroke-linecap="round" stroke-linejoin="round"/>
<path d="M15.6923 46.6062C16.2696 47.6908 18.4027 48.3545 19.5738 48.8829C19.7786 48.9443 20.2136 48.9745 20.3154 48.6043C20.6275 47.5188 21.577 45.9589 20.8836 44.6561C20.5155 43.9645 18.296 43.1383 18.288 45.6311C16.0711 43.974 15.3242 45.9145 15.6923 46.6062Z" fill="#AC68E1" stroke="#583276" stroke-width="0.1" stroke-linecap="round" stroke-linejoin="round"/>
<path d="M13.4335 52.0024C15.5163 52.0024 17.8606 49.9924 19.4101 48.9874C19.6315 48.793 19.9414 48.3198 19.4101 47.9823C17.8606 46.9773 15.935 44.9673 13.4335 44.9673C12.1053 44.9673 9.44906 46.9773 13.4335 48.4849C9.44906 49.9924 12.1053 52.0024 13.4335 52.0024Z" fill="#8F4FC2" stroke="#583276" stroke-width="0.1" stroke-linecap="round" stroke-linejoin="round"/>
<path d="M17.2996 52.537C18.5908 52.052 19.3808 50.26 20.0098 49.2762C20.0829 49.1041 20.1189 48.7387 19.6782 48.6532C18.386 48.391 16.5291 47.5933 14.9784 48.1758C14.1551 48.4851 13.1716 50.3497 16.139 50.3564C14.1665 52.2187 16.4763 52.8462 17.2996 52.537Z" fill="#AC68E1" stroke="#583276" stroke-width="0.1" stroke-linecap="round" stroke-linejoin="round"/>
<path d="M15.3488 53.8225C15.3488 52.0728 17.7414 50.1034 18.9378 48.8016C19.1692 48.6157 19.7324 48.3553 20.1341 48.8016C21.3305 50.1034 23.7231 51.721 23.7231 53.8225C23.7231 54.9383 21.3305 57.1698 19.5359 53.8225C17.7414 57.1698 15.3488 54.9383 15.3488 53.8225Z" fill="#8F4FC2" stroke="#583276" stroke-width="0.1" stroke-linecap="round" stroke-linejoin="round"/>
<path d="M19.1682 53.1366C18.5908 52.052 19.4243 50.274 19.7364 49.1884C19.8185 49.0193 20.0817 48.7267 20.478 48.9099C21.6491 49.4382 23.6661 49.8839 24.3595 51.1866C24.7276 51.8783 23.9807 53.8187 21.7638 52.1616C21.7558 54.6545 19.5363 53.8283 19.1682 53.1366Z" fill="#AC68E1" stroke="#583276" stroke-width="0.1" stroke-linecap="round" stroke-linejoin="round"/>
<path d="M26.2247 52.0025C24.1419 52.0025 21.7976 49.9924 20.2481 48.9874C20.0267 48.793 19.7168 48.3198 20.2481 47.9824C21.7976 46.9773 23.7232 44.9673 26.2247 44.9673C27.5529 44.9673 30.2091 46.9773 26.2247 48.4849C30.2091 49.9924 27.5529 52.0025 26.2247 52.0025Z" fill="#8F4FC2" stroke="#583276" stroke-width="0.1" stroke-linecap="round" stroke-linejoin="round"/>
<path d="M25.0733 49.617C23.7821 50.102 21.6657 49.4018 20.3735 49.1396C20.1722 49.0707 19.8239 48.8495 20.0419 48.5166C20.6708 47.5328 21.2013 45.8383 22.7521 45.2558C23.5754 44.9466 25.8852 45.5741 23.9127 47.4364C26.88 47.4431 25.8966 49.3077 25.0733 49.617Z" fill="#AC68E1" stroke="#583276" stroke-width="0.1" stroke-linecap="round" stroke-linejoin="round"/>
<path d="M20.0419 48.5166C19.8239 48.8495 20.1721 49.0706 20.3735 49.1396C20.7924 49.2246 21.2981 49.3557 21.8341 49.4774C21.2689 49.1316 20.2421 48.233 20.6562 47.4059C20.4368 47.8092 20.2444 48.1997 20.0419 48.5166Z" fill="#F5CF6C" stroke="#F5CF6C" stroke-width="0.1" stroke-linecap="round" stroke-linejoin="round"/>
<path d="M19.6781 48.6532C20.1188 48.7387 20.0828 49.1042 20.0097 49.2762C19.8058 49.5952 19.585 49.9991 19.3356 50.416C19.4056 49.8315 19.293 48.5895 18.2831 48.2972C18.7873 48.4288 19.262 48.5687 19.6781 48.6532Z" fill="#F5CF6C" stroke="#F5CF6C" stroke-width="0.1" stroke-linecap="round" stroke-linejoin="round"/>
<path d="M20.4378 48.9249C20.0477 48.7395 19.7931 49.0288 19.7145 49.1966C19.6193 49.5463 19.4711 49.9681 19.3341 50.4155C19.7321 49.9459 20.7703 49.0951 21.7384 49.4492C21.2661 49.2618 20.809 49.0973 20.4378 48.9249Z" fill="#F5CF6C" stroke="#F5CF6C" stroke-width="0.1" stroke-linecap="round" stroke-linejoin="round"/>
<path d="M20.2635 48.6238C20.1793 48.9874 19.7689 48.9479 19.5742 48.8827C19.2114 48.705 18.7531 48.5111 18.2795 48.2931C18.9362 48.3665 20.3247 48.3058 20.6256 47.475C20.4915 47.8901 20.3472 48.2806 20.2635 48.6238Z" fill="#F5CF6C" stroke="#F5CF6C" stroke-width="0.1" stroke-linecap="round" stroke-linejoin="round"/>
<ellipse cx="20.0385" cy="48.907" rx="0.418719" ry="0.351759" fill="#55794F"/>
<path d="M42.4213 18.162C41.1841 19.3992 41.4833 22.4837 41.4088 24.2501C41.441 24.5452 41.6552 25.1276 42.2548 25.096C44.0212 25.0215 46.8569 25.5695 48.3429 24.0835C49.1319 23.2946 49.0179 20.0248 45.3821 21.1228C46.4801 17.487 43.2103 17.373 42.4213 18.162Z" fill="#8F4FC2" stroke="#583276" stroke-width="0.1" stroke-linecap="round" stroke-linejoin="round"/>
<path d="M40.3676 20.7015C40.0089 21.8767 41.0479 23.8543 41.5024 25.056C41.6038 25.2443 41.89 25.5733 42.2237 25.3834C43.212 24.8366 44.9865 24.4049 45.4173 22.9935C45.6461 22.2441 44.6609 20.0904 42.8925 21.8475C42.4967 19.1082 40.5964 19.9521 40.3676 20.7015Z" fill="#AC68E1" stroke="#583276" stroke-width="0.1" stroke-linecap="round" stroke-linejoin="round"/>
<path d="M34.9547 22.92C36.4275 24.3928 39.5065 24.6292 41.3128 25.0142C41.6068 25.0333 42.1605 24.9178 42.0235 24.3035C41.6385 22.4972 41.6982 19.7143 39.9293 17.9454C38.9902 17.0063 35.6906 16.5493 37.442 20.4327C33.5586 18.6813 34.0156 21.9809 34.9547 22.92Z" fill="#8F4FC2" stroke="#583276" stroke-width="0.1" stroke-linecap="round" stroke-linejoin="round"/>
<path d="M37.3106 26.0318C38.5665 26.6018 40.3922 25.8934 41.5326 25.6424C41.706 25.5725 41.9898 25.3395 41.7387 24.9674C41.0104 23.8683 40.2614 21.9913 38.753 21.3066C37.9521 20.9431 35.9383 21.5662 38.0318 23.6692C35.3201 23.5913 36.5097 25.6683 37.3106 26.0318Z" fill="#AC68E1" stroke="#583276" stroke-width="0.1" stroke-linecap="round" stroke-linejoin="round"/>
<path d="M35.022 25.5613C36.2593 24.3241 39.3438 24.6234 41.1102 24.5489C41.4053 24.581 41.9876 24.7952 41.9561 25.3948C41.8816 27.1612 42.4296 29.9969 40.9436 31.4829C40.1547 32.2719 36.8849 32.1579 37.9828 28.5221C34.3471 29.6201 34.2331 26.3503 35.022 25.5613Z" fill="#8F4FC2" stroke="#583276" stroke-width="0.1" stroke-linecap="round" stroke-linejoin="round"/>
<path d="M38.2077 27.7771C38.5664 26.6019 40.413 25.9339 41.4013 25.3871C41.5789 25.3255 41.9719 25.3048 42.1227 25.7145C42.5772 26.9162 43.6882 28.6576 43.2574 30.069C43.0286 30.8184 41.1283 31.6623 40.7325 28.923C38.9642 30.6801 37.9789 28.5265 38.2077 27.7771Z" fill="#AC68E1" stroke="#583276" stroke-width="0.1" stroke-linecap="round" stroke-linejoin="round"/>
<path d="M43.9994 31.9648C42.5266 30.4921 42.2902 27.413 41.9052 25.6067C41.8862 25.3127 42.0016 24.759 42.6159 24.896C44.4222 25.2811 47.2052 25.2214 48.974 26.9902C49.9132 27.9293 50.3701 31.2289 46.4867 29.4775C48.2381 33.3609 44.9385 32.904 43.9994 31.9648Z" fill="#8F4FC2" stroke="#583276" stroke-width="0.1" stroke-linecap="round" stroke-linejoin="round"/>
<path d="M44.8721 29.4639C43.6161 28.8938 42.6146 26.9022 41.8864 25.8031C41.7927 25.6119 41.7029 25.2093 42.0924 25.128C43.2328 24.8771 44.8061 24.0541 46.3145 24.7387C47.1154 25.1022 48.305 27.1792 45.5933 27.1013C47.6868 29.2043 45.6729 29.8273 44.8721 29.4639Z" fill="#AC68E1" stroke="#583276" stroke-width="0.1" stroke-linecap="round" stroke-linejoin="round"/>
<path d="M42.0924 25.128C41.7029 25.2093 41.7927 25.6119 41.8864 25.803C42.1225 26.1594 42.3874 26.6096 42.6803 27.0747C42.5252 26.4305 42.4346 25.0691 43.3123 24.777C42.8718 24.907 42.4597 25.0472 42.0924 25.128Z" fill="#F5CF6C" stroke="#F5CF6C" stroke-width="0.1" stroke-linecap="round" stroke-linejoin="round"/>
<path d="M41.7387 24.9675C41.9899 25.3395 41.706 25.5725 41.5326 25.6425C41.1629 25.7238 40.7211 25.8533 40.25 25.9717C40.7128 25.6079 41.5114 24.6501 41.004 23.7293C41.2675 24.1789 41.5042 24.6135 41.7387 24.9675Z" fill="#F5CF6C" stroke="#F5CF6C" stroke-width="0.1" stroke-linecap="round" stroke-linejoin="round"/>
<path d="M42.0837 25.6968C41.939 25.2898 41.5544 25.3143 41.3801 25.3774C41.0655 25.5574 40.6625 25.7509 40.2493 25.9703C40.8628 25.9197 42.1985 26.0522 42.6327 26.9871C42.4312 26.5207 42.2243 26.0812 42.0837 25.6968Z" fill="#F5CF6C" stroke="#F5CF6C" stroke-width="0.1" stroke-linecap="round" stroke-linejoin="round"/>
<path d="M42.1733 25.3605C41.8566 25.5581 41.5943 25.2399 41.5028 25.0562C41.3719 24.674 41.185 24.2127 41.0043 23.7238C41.4167 24.24 42.4415 25.1789 43.2416 24.8042C42.8533 25.0029 42.4751 25.1769 42.1733 25.3605Z" fill="#F5CF6C" stroke="#F5CF6C" stroke-width="0.1" stroke-linecap="round" stroke-linejoin="round"/>
<ellipse cx="41.8139" cy="25.4017" rx="0.418719" ry="0.351759" transform="rotate(45 41.8139 25.4017)" fill="#55794F"/>
<path d="M45.9421 50.6828C44.7048 51.92 45.0041 55.0045 44.9296 56.7709C44.9617 57.066 45.1759 57.6484 45.7755 57.6168C47.5419 57.5423 50.3777 58.0903 51.8637 56.6044C52.6526 55.8154 52.5386 52.5456 48.9029 53.6436C50.0008 50.0078 46.731 49.8938 45.9421 50.6828Z" fill="#8F4FC2" stroke="#583276" stroke-width="0.1" stroke-linecap="round" stroke-linejoin="round"/>
<path d="M43.8884 53.2223C43.5296 54.3975 44.5686 56.3751 45.0231 57.5768C45.1245 57.7651 45.4108 58.0941 45.7445 57.9043C46.7328 57.3574 48.5072 56.9257 48.9381 55.5143C49.1668 54.7649 48.1816 52.6113 46.4132 54.3683C46.0175 51.629 44.1172 52.4729 43.8884 53.2223Z" fill="#AC68E1" stroke="#583276" stroke-width="0.1" stroke-linecap="round" stroke-linejoin="round"/>
<path d="M38.4755 55.4408C39.9482 56.9136 43.0272 57.15 44.8336 57.535C45.1276 57.5541 45.6813 57.4386 45.5442 56.8243C45.1592 55.018 45.2189 52.2351 43.4501 50.4662C42.5109 49.5271 39.2113 49.0701 40.9628 52.9535C37.0794 51.2021 37.5363 54.5017 38.4755 55.4408Z" fill="#8F4FC2" stroke="#583276" stroke-width="0.1" stroke-linecap="round" stroke-linejoin="round"/>
<path d="M40.8313 58.5526C42.0872 59.1226 43.913 58.4142 45.0534 58.1633C45.2267 58.0933 45.5106 57.8603 45.2594 57.4882C44.5312 56.3891 43.7821 54.5121 42.2737 53.8274C41.4729 53.464 39.459 54.087 41.5525 56.19C38.8408 56.1121 40.0304 58.1891 40.8313 58.5526Z" fill="#AC68E1" stroke="#583276" stroke-width="0.1" stroke-linecap="round" stroke-linejoin="round"/>
<path d="M38.5428 58.0821C39.78 56.8449 42.8645 57.1442 44.6309 57.0697C44.926 57.1018 45.5084 57.316 45.4769 57.9156C45.4023 59.682 45.9503 62.5178 44.4644 64.0037C43.6754 64.7927 40.4056 64.6787 41.5036 61.0429C37.8678 62.1409 37.7538 58.8711 38.5428 58.0821Z" fill="#8F4FC2" stroke="#583276" stroke-width="0.1" stroke-linecap="round" stroke-linejoin="round"/>
<path d="M41.7284 60.2979C42.0872 59.1227 43.9338 58.4548 44.922 57.9079C45.0997 57.8463 45.4927 57.8256 45.6434 58.2353C46.0979 59.437 47.209 61.1784 46.7781 62.5898C46.5494 63.3392 44.6491 64.1832 44.2533 61.4439C42.4849 63.2009 41.4997 61.0473 41.7284 60.2979Z" fill="#AC68E1" stroke="#583276" stroke-width="0.1" stroke-linecap="round" stroke-linejoin="round"/>
<path d="M47.5201 64.4856C46.0474 63.0129 45.811 59.9338 45.426 58.1275C45.4069 57.8335 45.5224 57.2798 46.1367 57.4169C47.943 57.8019 50.7259 57.7422 52.4948 59.511C53.4339 60.4502 53.8909 63.7498 50.0075 61.9983C51.7589 65.8817 48.4593 65.4248 47.5201 64.4856Z" fill="#8F4FC2" stroke="#583276" stroke-width="0.1" stroke-linecap="round" stroke-linejoin="round"/>
<path d="M48.3928 61.9847C47.1369 61.4146 46.1354 59.423 45.4071 58.3239C45.3135 58.1327 45.2236 57.7301 45.6132 57.6489C46.7536 57.3979 48.3268 56.5749 49.8352 57.2595C50.6361 57.623 51.8257 59.7 49.114 59.6221C51.2075 61.7251 49.1937 62.3482 48.3928 61.9847Z" fill="#AC68E1" stroke="#583276" stroke-width="0.1" stroke-linecap="round" stroke-linejoin="round"/>
<path d="M45.6132 57.6488C45.2236 57.7301 45.3135 58.1327 45.4071 58.3238C45.6433 58.6802 45.9081 59.1304 46.201 59.5956C46.046 58.9513 45.9553 57.5899 46.833 57.2978C46.3926 57.4279 45.9804 57.568 45.6132 57.6488Z" fill="#F5CF6C" stroke="#F5CF6C" stroke-width="0.1" stroke-linecap="round" stroke-linejoin="round"/>
<path d="M45.2595 57.4883C45.5106 57.8603 45.2267 58.0933 45.0534 58.1633C44.6836 58.2447 44.2418 58.3741 43.7708 58.4925C44.2335 58.1287 45.0322 57.1709 44.5247 56.2502C44.7882 56.6997 45.0249 57.1343 45.2595 57.4883Z" fill="#F5CF6C" stroke="#F5CF6C" stroke-width="0.1" stroke-linecap="round" stroke-linejoin="round"/>
<path d="M45.6044 58.2176C45.4597 57.8106 45.0751 57.8351 44.9009 57.8983C44.5862 58.0782 44.1832 58.2717 43.77 58.4911C44.3836 58.4405 45.7192 58.573 46.1534 59.5079C45.9519 59.0415 45.7451 58.602 45.6044 58.2176Z" fill="#F5CF6C" stroke="#F5CF6C" stroke-width="0.1" stroke-linecap="round" stroke-linejoin="round"/>
<path d="M45.694 57.8813C45.3774 58.0789 45.1151 57.7608 45.0235 57.577C44.8927 57.1948 44.7057 56.7336 44.525 56.2446C44.9374 56.7608 45.9622 57.6997 46.7624 57.325C46.374 57.5238 45.9959 57.6978 45.694 57.8813Z" fill="#F5CF6C" stroke="#F5CF6C" stroke-width="0.1" stroke-linecap="round" stroke-linejoin="round"/>
<ellipse cx="45.3347" cy="57.9225" rx="0.418719" ry="0.351759" transform="rotate(45 45.3347 57.9225)" fill="#55794F"/>
<path d="M73.9421 75.6828C72.7048 76.92 73.0041 80.0045 72.9296 81.7709C72.9617 82.066 73.1759 82.6484 73.7755 82.6168C75.5419 82.5423 78.3777 83.0903 79.8637 81.6044C80.6526 80.8154 80.5386 77.5456 76.9029 78.6436C78.0008 75.0078 74.731 74.8938 73.9421 75.6828Z" fill="#8F4FC2" stroke="#583276" stroke-width="0.1" stroke-linecap="round" stroke-linejoin="round"/>
<path d="M71.8885 78.2223C71.5298 79.3975 72.5687 81.3751 73.0232 82.5768C73.1246 82.7651 73.4109 83.0941 73.7446 82.9043C74.7329 82.3574 76.5073 81.9257 76.9382 80.5143C77.167 79.7649 76.1817 77.6113 74.4134 79.3683C74.0176 76.629 72.1173 77.4729 71.8885 78.2223Z" fill="#AC68E1" stroke="#583276" stroke-width="0.1" stroke-linecap="round" stroke-linejoin="round"/>
<path d="M66.4756 80.4408C67.9483 81.9136 71.0274 82.15 72.8337 82.535C73.1277 82.5541 73.6814 82.4386 73.5444 81.8243C73.1593 80.018 73.219 77.2351 71.4502 75.4662C70.5111 74.5271 67.2115 74.0701 68.9629 77.9535C65.0795 76.2021 65.5364 79.5017 66.4756 80.4408Z" fill="#8F4FC2" stroke="#583276" stroke-width="0.1" stroke-linecap="round" stroke-linejoin="round"/>
<path d="M68.8312 83.5526C70.0871 84.1226 71.9129 83.4142 73.0533 83.1633C73.2266 83.0933 73.5105 82.8603 73.2593 82.4882C72.531 81.3891 71.782 79.5121 70.2736 78.8274C69.4728 78.464 67.4589 79.087 69.5524 81.19C66.8407 81.1121 68.0303 83.1891 68.8312 83.5526Z" fill="#AC68E1" stroke="#583276" stroke-width="0.1" stroke-linecap="round" stroke-linejoin="round"/>
<path d="M66.5428 83.0821C67.78 81.8449 70.8645 82.1442 72.6309 82.0697C72.926 82.1018 73.5084 82.316 73.4769 82.9156C73.4023 84.682 73.9503 87.5178 72.4644 89.0037C71.6754 89.7927 68.4056 89.6787 69.5036 86.0429C65.8678 87.1409 65.7538 83.8711 66.5428 83.0821Z" fill="#8F4FC2" stroke="#583276" stroke-width="0.1" stroke-linecap="round" stroke-linejoin="round"/>
<path d="M69.7284 85.2979C70.0872 84.1227 71.9338 83.4548 72.922 82.9079C73.0997 82.8463 73.4927 82.8256 73.6434 83.2353C74.0979 84.437 75.209 86.1784 74.7781 87.5898C74.5494 88.3392 72.6491 89.1832 72.2533 86.4439C70.4849 88.2009 69.4997 86.0473 69.7284 85.2979Z" fill="#AC68E1" stroke="#583276" stroke-width="0.1" stroke-linecap="round" stroke-linejoin="round"/>
<path d="M75.5203 89.4856C74.0475 88.0129 73.8111 84.9338 73.4261 83.1275C73.4071 82.8335 73.5225 82.2798 74.1368 82.4169C75.9431 82.8019 78.726 82.7422 80.4949 84.511C81.434 85.4502 81.891 88.7498 78.0076 86.9983C79.759 90.8817 76.4594 90.4248 75.5203 89.4856Z" fill="#8F4FC2" stroke="#583276" stroke-width="0.1" stroke-linecap="round" stroke-linejoin="round"/>
<path d="M76.3927 86.9847C75.1368 86.4146 74.1353 84.423 73.407 83.3239C73.3134 83.1327 73.2235 82.7301 73.6131 82.6489C74.7535 82.3979 76.3267 81.5749 77.8351 82.2595C78.636 82.623 79.8256 84.7 77.1139 84.6221C79.2074 86.7251 77.1935 87.3482 76.3927 86.9847Z" fill="#AC68E1" stroke="#583276" stroke-width="0.1" stroke-linecap="round" stroke-linejoin="round"/>
<path d="M73.6131 82.6488C73.2235 82.7301 73.3134 83.1327 73.407 83.3238C73.6431 83.6802 73.908 84.1304 74.2009 84.5956C74.0459 83.9513 73.9552 82.5899 74.8329 82.2978C74.3925 82.4279 73.9803 82.568 73.6131 82.6488Z" fill="#F5CF6C" stroke="#F5CF6C" stroke-width="0.1" stroke-linecap="round" stroke-linejoin="round"/>
<path d="M73.2592 82.4883C73.5104 82.8603 73.2265 83.0933 73.0531 83.1633C72.6834 83.2447 72.2416 83.3741 71.7705 83.4925C72.2333 83.1287 73.0319 82.1709 72.5245 81.2502C72.788 81.6997 73.0247 82.1343 73.2592 82.4883Z" fill="#F5CF6C" stroke="#F5CF6C" stroke-width="0.1" stroke-linecap="round" stroke-linejoin="round"/>
<path d="M73.6044 83.2176C73.4597 82.8106 73.0751 82.8351 72.9009 82.8983C72.5862 83.0782 72.1832 83.2717 71.77 83.4911C72.3836 83.4405 73.7192 83.573 74.1534 84.5079C73.9519 84.0415 73.7451 83.602 73.6044 83.2176Z" fill="#F5CF6C" stroke="#F5CF6C" stroke-width="0.1" stroke-linecap="round" stroke-linejoin="round"/>
<path d="M73.6939 82.8813C73.3772 83.0789 73.115 82.7608 73.0234 82.577C72.8925 82.1948 72.7056 81.7336 72.5249 81.2446C72.9373 81.7608 73.9621 82.6997 74.7622 82.325C74.3739 82.5238 73.9958 82.6978 73.6939 82.8813Z" fill="#F5CF6C" stroke="#F5CF6C" stroke-width="0.1" stroke-linecap="round" stroke-linejoin="round"/>
<ellipse cx="73.3347" cy="82.9225" rx="0.418719" ry="0.351759" transform="rotate(45 73.3347 82.9225)" fill="#55794F"/>
<path d="M118.942 46.6828C117.705 47.92 118.004 51.0045 117.93 52.7709C117.962 53.066 118.176 53.6484 118.776 53.6168C120.542 53.5423 123.378 54.0903 124.864 52.6044C125.653 51.8154 125.539 48.5456 121.903 49.6436C123.001 46.0078 119.731 45.8938 118.942 46.6828Z" fill="#8F4FC2" stroke="#583276" stroke-width="0.1" stroke-linecap="round" stroke-linejoin="round"/>
<path d="M116.889 49.2223C116.53 50.3975 117.569 52.3751 118.023 53.5768C118.125 53.7651 118.411 54.0941 118.745 53.9043C119.733 53.3574 121.507 52.9257 121.938 51.5143C122.167 50.7649 121.182 48.6113 119.413 50.3683C119.018 47.629 117.117 48.4729 116.889 49.2223Z" fill="#AC68E1" stroke="#583276" stroke-width="0.1" stroke-linecap="round" stroke-linejoin="round"/>
<path d="M111.476 51.4408C112.948 52.9136 116.027 53.15 117.834 53.535C118.128 53.5541 118.681 53.4386 118.544 52.8243C118.159 51.018 118.219 48.2351 116.45 46.4662C115.511 45.5271 112.211 45.0701 113.963 48.9535C110.079 47.2021 110.536 50.5017 111.476 51.4408Z" fill="#8F4FC2" stroke="#583276" stroke-width="0.1" stroke-linecap="round" stroke-linejoin="round"/>
<path d="M113.831 54.5526C115.087 55.1226 116.913 54.4142 118.053 54.1633C118.227 54.0933 118.51 53.8603 118.259 53.4882C117.531 52.3891 116.782 50.5121 115.274 49.8274C114.473 49.464 112.459 50.087 114.552 52.19C111.841 52.1121 113.03 54.1891 113.831 54.5526Z" fill="#AC68E1" stroke="#583276" stroke-width="0.1" stroke-linecap="round" stroke-linejoin="round"/>
<path d="M111.543 54.0821C112.78 52.8449 115.865 53.1442 117.631 53.0697C117.926 53.1018 118.508 53.316 118.477 53.9156C118.402 55.682 118.95 58.5178 117.464 60.0037C116.675 60.7927 113.406 60.6787 114.504 57.0429C110.868 58.1409 110.754 54.8711 111.543 54.0821Z" fill="#8F4FC2" stroke="#583276" stroke-width="0.1" stroke-linecap="round" stroke-linejoin="round"/>
<path d="M114.728 56.2979C115.087 55.1227 116.934 54.4548 117.922 53.9079C118.1 53.8463 118.493 53.8256 118.643 54.2353C119.098 55.437 120.209 57.1784 119.778 58.5898C119.549 59.3392 117.649 60.1832 117.253 57.4439C115.485 59.2009 114.5 57.0473 114.728 56.2979Z" fill="#AC68E1" stroke="#583276" stroke-width="0.1" stroke-linecap="round" stroke-linejoin="round"/>
<path d="M120.52 60.4856C119.048 59.0129 118.811 55.9338 118.426 54.1275C118.407 53.8335 118.522 53.2798 119.137 53.4169C120.943 53.8019 123.726 53.7422 125.495 55.511C126.434 56.4502 126.891 59.7498 123.008 57.9983C124.759 61.8817 121.459 61.4248 120.52 60.4856Z" fill="#8F4FC2" stroke="#583276" stroke-width="0.1" stroke-linecap="round" stroke-linejoin="round"/>
<path d="M121.393 57.9847C120.137 57.4146 119.135 55.423 118.407 54.3239C118.313 54.1327 118.224 53.7301 118.613 53.6489C119.753 53.3979 121.327 52.5749 122.835 53.2595C123.636 53.623 124.826 55.7 122.114 55.6221C124.207 57.7251 122.194 58.3482 121.393 57.9847Z" fill="#AC68E1" stroke="#583276" stroke-width="0.1" stroke-linecap="round" stroke-linejoin="round"/>
<path d="M118.613 53.6488C118.224 53.7301 118.313 54.1327 118.407 54.3238C118.643 54.6802 118.908 55.1304 119.201 55.5956C119.046 54.9513 118.955 53.5899 119.833 53.2978C119.392 53.4279 118.98 53.568 118.613 53.6488Z" fill="#F5CF6C" stroke="#F5CF6C" stroke-width="0.1" stroke-linecap="round" stroke-linejoin="round"/>
<path d="M118.259 53.4883C118.51 53.8603 118.226 54.0933 118.053 54.1633C117.683 54.2447 117.242 54.3741 116.771 54.4925C117.233 54.1287 118.032 53.1709 117.524 52.2502C117.788 52.6997 118.025 53.1343 118.259 53.4883Z" fill="#F5CF6C" stroke="#F5CF6C" stroke-width="0.1" stroke-linecap="round" stroke-linejoin="round"/>
<path d="M118.604 54.2176C118.46 53.8106 118.075 53.8351 117.901 53.8983C117.586 54.0782 117.183 54.2717 116.77 54.4911C117.384 54.4405 118.719 54.573 119.153 55.5079C118.952 55.0415 118.745 54.602 118.604 54.2176Z" fill="#F5CF6C" stroke="#F5CF6C" stroke-width="0.1" stroke-linecap="round" stroke-linejoin="round"/>
<path d="M118.694 53.8813C118.377 54.0789 118.115 53.7608 118.023 53.577C117.893 53.1948 117.706 52.7336 117.525 52.2446C117.937 52.7608 118.962 53.6997 119.762 53.325C119.374 53.5238 118.996 53.6978 118.694 53.8813Z" fill="#F5CF6C" stroke="#F5CF6C" stroke-width="0.1" stroke-linecap="round" stroke-linejoin="round"/>
<ellipse cx="118.335" cy="53.9225" rx="0.418719" ry="0.351759" transform="rotate(45 118.335 53.9225)" fill="#55794F"/>
<path d="M72.836 3.54084C71.9612 5.05615 73.0486 7.95808 73.4338 9.68357C73.5412 9.96031 73.8988 10.4674 74.4698 10.2817C76.1568 9.75259 79.0377 9.54797 80.0885 7.72803C80.6463 6.76176 79.69 3.63288 76.4623 5.63444C76.5818 1.83837 73.3939 2.57457 72.836 3.54084Z" fill="#8F4FC2" stroke="#583276" stroke-width="0.1" stroke-linecap="round" stroke-linejoin="round"/>
<path d="M71.5094 6.52537C71.4671 7.75337 72.9825 9.3947 73.7325 10.4378C73.8792 10.5934 74.2408 10.8371 74.5141 10.5674C75.3271 9.78336 76.9294 8.90714 76.9803 7.43226C77.0073 6.6492 75.4982 4.82396 74.2449 6.97882C73.1536 4.43529 71.5365 5.74231 71.5094 6.52537Z" fill="#AC68E1" stroke="#583276" stroke-width="0.1" stroke-linecap="round" stroke-linejoin="round"/>
<path d="M66.8552 10.0693C68.6589 11.1107 71.6942 10.5421 73.5386 10.4465C73.8275 10.3888 74.3325 10.134 74.0412 9.5761C73.2018 7.93098 72.5391 5.22741 70.3728 3.97665C69.2226 3.31257 65.9171 3.72518 68.614 7.02297C64.4096 6.33631 65.705 9.40521 66.8552 10.0693Z" fill="#8F4FC2" stroke="#583276" stroke-width="0.1" stroke-linecap="round" stroke-linejoin="round"/>
<path d="M69.936 12.4653C71.2967 12.6908 72.8769 11.534 73.9135 10.9964C74.0628 10.884 74.2767 10.5854 73.9378 10.2911C72.9499 9.41792 71.7406 7.79868 70.1064 7.52779C69.2387 7.38396 67.4547 8.507 70.0212 9.99652C67.3817 10.6231 69.0684 12.3214 69.936 12.4653Z" fill="#AC68E1" stroke="#583276" stroke-width="0.1" stroke-linecap="round" stroke-linejoin="round"/>
<path d="M67.6039 12.6032C68.4788 11.0879 71.5356 10.5786 73.2225 10.0495C73.5159 10.0041 74.1339 10.0603 74.2586 10.6476C74.6438 12.3731 75.9071 14.9704 74.8563 16.7904C74.2985 17.7566 71.1106 18.4928 71.2301 14.6968C68.0024 16.6983 67.046 13.5694 67.6039 12.6032Z" fill="#8F4FC2" stroke="#583276" stroke-width="0.1" stroke-linecap="round" stroke-linejoin="round"/>
<path d="M71.2545 13.9189C71.2968 12.6909 72.9076 11.5678 73.7207 10.7837C73.8763 10.6783 74.2506 10.5566 74.5022 10.9133C75.2522 11.9564 76.7762 13.3509 76.7253 14.8258C76.6983 15.6088 75.0812 16.9158 73.9899 14.3723C72.7365 16.5272 71.2275 14.7019 71.2545 13.9189Z" fill="#AC68E1" stroke="#583276" stroke-width="0.1" stroke-linecap="round" stroke-linejoin="round"/>
<path d="M77.9327 16.4649C76.1289 15.4235 75.1037 12.5106 74.2643 10.8655C74.1698 10.5864 74.138 10.0217 74.7668 9.99509C76.6112 9.89946 79.2839 9.12152 81.4503 10.3723C82.6005 11.0364 83.8959 14.1053 79.6915 13.4186C82.3883 16.7164 79.0829 17.129 77.9327 16.4649Z" fill="#8F4FC2" stroke="#583276" stroke-width="0.1" stroke-linecap="round" stroke-linejoin="round"/>
<path d="M78.1282 13.8233C76.7675 13.5978 75.2847 11.9332 74.2967 11.06C74.1568 10.8996 73.9658 10.534 74.3211 10.3547C75.3577 9.81712 76.6643 8.61495 78.2985 8.88584C79.1661 9.02967 80.8528 10.728 78.2133 11.3546C80.7798 12.8441 78.9958 13.9671 78.1282 13.8233Z" fill="#AC68E1" stroke="#583276" stroke-width="0.1" stroke-linecap="round" stroke-linejoin="round"/>
<path d="M74.3214 10.3547C73.9661 10.534 74.1571 10.8996 74.297 11.06C74.6174 11.3431 74.9897 11.7094 75.3931 12.0829C75.0766 11.5008 74.6366 10.2092 75.4088 9.69993C75.017 9.93951 74.6552 10.1815 74.3214 10.3547Z" fill="#F5CF6C" stroke="#F5CF6C" stroke-width="0.1" stroke-linecap="round" stroke-linejoin="round"/>
<path d="M73.9381 10.2911C74.277 10.5855 74.0631 10.884 73.9137 10.9965C73.5776 11.1708 73.1844 11.4102 72.76 11.6465C73.1128 11.1753 73.6364 10.0434 72.9079 9.28538C73.2788 9.65138 73.6199 10.0099 73.9381 10.2911Z" fill="#F5CF6C" stroke="#F5CF6C" stroke-width="0.1" stroke-linecap="round" stroke-linejoin="round"/>
<path d="M74.4601 10.9063C74.215 10.5506 73.8499 10.6739 73.6979 10.7799C73.4406 11.0352 73.1014 11.3264 72.759 11.6453C73.3386 11.4376 74.663 11.2199 75.3244 12.0106C75.009 11.6122 74.6955 11.2412 74.4601 10.9063Z" fill="#F5CF6C" stroke="#F5CF6C" stroke-width="0.1" stroke-linecap="round" stroke-linejoin="round"/>
<path d="M74.4595 10.5583C74.2048 10.8311 73.8691 10.5917 73.7331 10.4379C73.5078 10.1027 73.2078 9.70547 72.9067 9.27991C73.4387 9.67186 74.6716 10.3135 75.3475 9.7445C75.0238 10.0369 74.7036 10.3029 74.4595 10.5583Z" fill="#F5CF6C" stroke="#F5CF6C" stroke-width="0.1" stroke-linecap="round" stroke-linejoin="round"/>
<ellipse cx="74.123" cy="10.6911" rx="0.418719" ry="0.351759" transform="rotate(30 74.123 10.6911)" fill="#55794F"/>
<path d="M144.426 42.1312C143.552 43.6465 144.639 46.5485 145.024 48.274C145.132 48.5507 145.489 49.0578 146.06 48.8721C147.747 48.343 150.628 48.1384 151.679 46.3184C152.237 45.3522 151.28 42.2233 148.053 44.2248C148.172 40.4288 144.984 41.165 144.426 42.1312Z" fill="#8F4FC2" stroke="#583276" stroke-width="0.1" stroke-linecap="round" stroke-linejoin="round"/>
<path d="M143.1 45.1158C143.057 46.3438 144.573 47.9851 145.323 49.0282C145.47 49.1838 145.831 49.4275 146.104 49.1578C146.917 48.3738 148.52 47.4975 148.571 46.0227C148.598 45.2396 147.089 43.4143 145.835 45.5692C144.744 43.0257 143.127 44.3327 143.1 45.1158Z" fill="#AC68E1" stroke="#583276" stroke-width="0.1" stroke-linecap="round" stroke-linejoin="round"/>
<path d="M138.446 48.6597C140.249 49.7011 143.285 49.1325 145.129 49.0369C145.418 48.9792 145.923 48.7244 145.631 48.1665C144.792 46.5214 144.129 43.8178 141.963 42.567C140.813 41.903 137.507 42.3156 140.204 45.6134C136 44.9267 137.295 47.9956 138.446 48.6597Z" fill="#8F4FC2" stroke="#583276" stroke-width="0.1" stroke-linecap="round" stroke-linejoin="round"/>
<path d="M141.526 51.0556C142.887 51.2812 144.467 50.1244 145.504 49.5868C145.653 49.4744 145.867 49.1758 145.528 48.8815C144.54 48.0083 143.331 46.3891 141.697 46.1182C140.829 45.9743 139.045 47.0974 141.612 48.5869C138.972 49.2135 140.659 50.9118 141.526 51.0556Z" fill="#AC68E1" stroke="#583276" stroke-width="0.1" stroke-linecap="round" stroke-linejoin="round"/>
<path d="M139.194 51.1936C140.069 49.6783 143.126 49.169 144.813 48.6399C145.106 48.5945 145.724 48.6507 145.849 49.238C146.234 50.9635 147.497 53.5608 146.447 55.3808C145.889 56.347 142.701 57.0832 142.82 53.2872C139.593 55.2887 138.636 52.1598 139.194 51.1936Z" fill="#8F4FC2" stroke="#583276" stroke-width="0.1" stroke-linecap="round" stroke-linejoin="round"/>
<path d="M142.845 52.5093C142.887 51.2813 144.498 50.1582 145.311 49.3741C145.467 49.2687 145.841 49.147 146.093 49.5037C146.843 50.5468 148.367 51.9413 148.316 53.4162C148.289 54.1992 146.671 55.5062 145.58 52.9627C144.327 55.1176 142.818 53.2923 142.845 52.5093Z" fill="#AC68E1" stroke="#583276" stroke-width="0.1" stroke-linecap="round" stroke-linejoin="round"/>
<path d="M149.523 55.0553C147.719 54.0139 146.694 51.101 145.855 49.4559C145.76 49.1768 145.728 48.6121 146.357 48.5855C148.202 48.4899 150.874 47.7119 153.041 48.9627C154.191 49.6268 155.486 52.6956 151.282 52.009C153.979 55.3068 150.673 55.7194 149.523 55.0553Z" fill="#8F4FC2" stroke="#583276" stroke-width="0.1" stroke-linecap="round" stroke-linejoin="round"/>
<path d="M149.719 52.4137C148.358 52.1882 146.875 50.5236 145.887 49.6504C145.747 49.49 145.556 49.1244 145.911 48.9451C146.948 48.4075 148.255 47.2053 149.889 47.4762C150.756 47.6201 152.443 49.3184 149.804 49.945C152.37 51.4345 150.586 52.5575 149.719 52.4137Z" fill="#AC68E1" stroke="#583276" stroke-width="0.1" stroke-linecap="round" stroke-linejoin="round"/>
<path d="M145.912 48.9451C145.556 49.1244 145.747 49.49 145.887 49.6504C146.208 49.9335 146.58 50.2998 146.983 50.6733C146.667 50.0912 146.227 48.7996 146.999 48.2903C146.607 48.5299 146.246 48.7719 145.912 48.9451Z" fill="#F5CF6C" stroke="#F5CF6C" stroke-width="0.1" stroke-linecap="round" stroke-linejoin="round"/>
<path d="M145.528 48.8815C145.867 49.1759 145.653 49.4744 145.504 49.5869C145.168 49.7612 144.775 50.0006 144.35 50.2368C144.703 49.7657 145.227 48.6338 144.498 47.8758C144.869 48.2418 145.21 48.6003 145.528 48.8815Z" fill="#F5CF6C" stroke="#F5CF6C" stroke-width="0.1" stroke-linecap="round" stroke-linejoin="round"/>
<path d="M146.05 49.4967C145.805 49.141 145.44 49.2643 145.288 49.3703C145.031 49.6256 144.692 49.9168 144.349 50.2357C144.929 50.028 146.253 49.8103 146.915 50.601C146.599 50.2026 146.286 49.8316 146.05 49.4967Z" fill="#F5CF6C" stroke="#F5CF6C" stroke-width="0.1" stroke-linecap="round" stroke-linejoin="round"/>
<path d="M146.05 49.1487C145.795 49.4215 145.459 49.1821 145.323 49.0283C145.098 48.693 144.798 48.2959 144.497 47.8703C145.029 48.2623 146.262 48.9039 146.938 48.3349C146.614 48.6273 146.294 48.8933 146.05 49.1487Z" fill="#F5CF6C" stroke="#F5CF6C" stroke-width="0.1" stroke-linecap="round" stroke-linejoin="round"/>
<ellipse cx="145.713" cy="49.2814" rx="0.418719" ry="0.351759" transform="rotate(30 145.713 49.2814)" fill="#55794F"/>
<path d="M72.6942 20.6116C73.5691 22.1269 76.6259 22.6361 78.3129 23.1653C78.6062 23.2106 79.2242 23.1545 79.3489 22.5671C79.7341 20.8416 80.9974 18.2443 79.9467 16.4244C79.3888 15.4581 76.2009 14.7219 76.3204 18.518C73.0927 16.5164 72.1364 19.6453 72.6942 20.6116Z" fill="#8F4FC2" stroke="#583276" stroke-width="0.1" stroke-linecap="round" stroke-linejoin="round"/>
<path d="M74.6156 23.2526C75.6579 23.9032 77.837 23.4115 79.1154 23.2835C79.3235 23.2343 79.7154 23.043 79.6184 22.6715C79.346 21.5753 79.3883 19.7496 78.1364 18.9681C77.4718 18.5532 75.1365 18.9475 76.376 21.1103C73.6276 20.7837 73.951 22.8376 74.6156 23.2526Z" fill="#AC68E1" stroke="#583276" stroke-width="0.1" stroke-linecap="round" stroke-linejoin="round"/>
<path d="M75.3576 29.0553C77.1614 28.0139 78.1866 25.101 79.026 23.4558C79.1205 23.1768 79.1523 22.6121 78.5235 22.5854C76.6791 22.4898 74.0064 21.7119 71.84 22.9626C70.6898 23.6267 69.3944 26.6956 73.5988 26.009C70.902 29.3068 74.2074 29.7194 75.3576 29.0553Z" fill="#8F4FC2" stroke="#583276" stroke-width="0.1" stroke-linecap="round" stroke-linejoin="round"/>
<path d="M78.9731 27.5851C79.8488 26.5195 79.637 24.5726 79.6898 23.4061C79.6671 23.2206 79.5155 22.8861 79.0911 23.0324C77.841 23.4514 75.834 23.6891 74.7823 24.9689C74.2239 25.6484 74.3045 27.7549 76.8777 26.277C76.1006 28.8761 78.4147 28.2646 78.9731 27.5851Z" fill="#AC68E1" stroke="#583276" stroke-width="0.1" stroke-linecap="round" stroke-linejoin="round"/>
<path d="M77.9264 29.6739C77.0515 28.1586 78.1389 25.2567 78.5241 23.5312C78.6315 23.2544 78.9891 22.7474 79.5602 22.933C81.2471 23.4622 84.1281 23.6668 85.1788 25.4867C85.7367 26.453 84.7803 29.5819 81.5526 27.5803C81.6721 31.3764 78.4842 30.6402 77.9264 29.6739Z" fill="#8F4FC2" stroke="#583276" stroke-width="0.1" stroke-linecap="round" stroke-linejoin="round"/>
<path d="M80.891 27.1702C79.8487 26.5195 79.6814 24.563 79.409 23.4669C79.3955 23.2793 79.4772 22.8943 79.912 22.8548C81.1904 22.7268 83.1599 22.1043 84.4118 22.8858C85.0764 23.3007 85.3998 25.3547 82.6514 25.028C83.8909 27.1909 81.5556 27.5851 80.891 27.1702Z" fill="#AC68E1" stroke="#583276" stroke-width="0.1" stroke-linecap="round" stroke-linejoin="round"/>
<path d="M86.4351 22.6597C84.6314 23.7011 81.5961 23.1325 79.7516 23.0369C79.4627 22.9792 78.9578 22.7244 79.2491 22.1665C80.0885 20.5214 80.7511 17.8178 82.9175 16.5671C84.0677 15.903 87.3732 16.3156 84.6763 19.6134C88.8807 18.9267 87.5853 21.9956 86.4351 22.6597Z" fill="#8F4FC2" stroke="#583276" stroke-width="0.1" stroke-linecap="round" stroke-linejoin="round"/>
<path d="M84.2451 21.1695C83.3695 22.2351 81.1865 22.687 79.9363 23.106C79.7275 23.147 79.3153 23.1296 79.3377 22.7323C79.3904 21.5658 79.0026 19.8331 80.0543 18.5533C80.6127 17.8738 82.9269 17.2623 82.1497 19.8614C84.7229 18.3835 84.8035 20.49 84.2451 21.1695Z" fill="#AC68E1" stroke="#583276" stroke-width="0.1" stroke-linecap="round" stroke-linejoin="round"/>
<path d="M79.3376 22.7322C79.3152 23.1295 79.7274 23.1469 79.9362 23.106C80.3416 22.9701 80.845 22.8308 81.3701 22.6682C80.7077 22.6513 79.3692 22.3865 79.3143 21.4631C79.3259 21.9222 79.3546 22.3566 79.3376 22.7322Z" fill="#F5CF6C" stroke="#F5CF6C" stroke-width="0.1" stroke-linecap="round" stroke-linejoin="round"/>
<path d="M79.0911 23.0324C79.5155 22.8861 79.667 23.2206 79.6898 23.4061C79.6727 23.7844 79.6834 24.2446 79.6758 24.7303C79.4442 24.1891 78.7257 23.1698 77.705 23.4216C78.2074 23.2835 78.6885 23.1673 79.0911 23.0324Z" fill="#F5CF6C" stroke="#F5CF6C" stroke-width="0.1" stroke-linecap="round" stroke-linejoin="round"/>
<path d="M79.8849 22.8879C79.4543 22.9223 79.3784 23.3002 79.3943 23.4848C79.4867 23.8353 79.5693 24.2747 79.6743 24.7306C79.7842 24.1248 80.2579 22.869 81.2733 22.6916C80.7706 22.7655 80.2925 22.8515 79.8849 22.8879Z" fill="#F5CF6C" stroke="#F5CF6C" stroke-width="0.1" stroke-linecap="round" stroke-linejoin="round"/>
<path d="M79.5832 22.7143C79.6921 23.0713 79.3169 23.2423 79.1158 23.2832C78.7128 23.3107 78.2188 23.3719 77.6997 23.4199C78.3051 23.1552 79.4772 22.4083 79.3224 21.5384C79.4139 21.965 79.4841 22.3752 79.5832 22.7143Z" fill="#F5CF6C" stroke="#F5CF6C" stroke-width="0.1" stroke-linecap="round" stroke-linejoin="round"/>
<ellipse cx="79.53" cy="23.072" rx="0.418719" ry="0.351759" transform="rotate(-30 79.53 23.072)" fill="#55794F"/>
<path d="M107.694 16.6116C108.569 18.1269 111.626 18.6361 113.313 19.1653C113.606 19.2106 114.224 19.1545 114.349 18.5671C114.734 16.8416 115.997 14.2443 114.947 12.4244C114.389 11.4581 111.201 10.7219 111.32 14.518C108.093 12.5164 107.136 15.6453 107.694 16.6116Z" fill="#8F4FC2" stroke="#583276" stroke-width="0.1" stroke-linecap="round" stroke-linejoin="round"/>
<path d="M109.616 19.2526C110.658 19.9032 112.837 19.4115 114.115 19.2835C114.323 19.2343 114.715 19.043 114.618 18.6715C114.346 17.5753 114.388 15.7496 113.136 14.9681C112.472 14.5532 110.137 14.9475 111.376 17.1103C108.628 16.7837 108.951 18.8376 109.616 19.2526Z" fill="#AC68E1" stroke="#583276" stroke-width="0.1" stroke-linecap="round" stroke-linejoin="round"/>
<path d="M110.358 25.0553C112.161 24.0139 113.187 21.101 114.026 19.4558C114.121 19.1768 114.152 18.6121 113.523 18.5854C111.679 18.4898 109.006 17.7119 106.84 18.9626C105.69 19.6267 104.394 22.6956 108.599 22.009C105.902 25.3068 109.207 25.7194 110.358 25.0553Z" fill="#8F4FC2" stroke="#583276" stroke-width="0.1" stroke-linecap="round" stroke-linejoin="round"/>
<path d="M113.973 23.5851C114.849 22.5195 114.637 20.5726 114.69 19.4061C114.667 19.2206 114.515 18.8861 114.091 19.0324C112.841 19.4514 110.834 19.6891 109.782 20.9689C109.224 21.6484 109.305 23.7549 111.878 22.277C111.101 24.8761 113.415 24.2646 113.973 23.5851Z" fill="#AC68E1" stroke="#583276" stroke-width="0.1" stroke-linecap="round" stroke-linejoin="round"/>
<path d="M112.926 25.6739C112.052 24.1586 113.139 21.2567 113.524 19.5312C113.632 19.2544 113.989 18.7474 114.56 18.933C116.247 19.4622 119.128 19.6668 120.179 21.4867C120.737 22.453 119.78 25.5819 116.553 23.5803C116.672 27.3764 113.484 26.6402 112.926 25.6739Z" fill="#8F4FC2" stroke="#583276" stroke-width="0.1" stroke-linecap="round" stroke-linejoin="round"/>
<path d="M115.891 23.1702C114.849 22.5195 114.681 20.563 114.409 19.4669C114.396 19.2793 114.477 18.8943 114.912 18.8548C116.19 18.7268 118.16 18.1043 119.412 18.8858C120.076 19.3007 120.4 21.3547 117.651 21.028C118.891 23.1909 116.556 23.5851 115.891 23.1702Z" fill="#AC68E1" stroke="#583276" stroke-width="0.1" stroke-linecap="round" stroke-linejoin="round"/>
<path d="M121.435 18.6597C119.631 19.7011 116.596 19.1325 114.752 19.0369C114.463 18.9792 113.958 18.7244 114.249 18.1665C115.089 16.5214 115.751 13.8178 117.918 12.5671C119.068 11.903 122.373 12.3156 119.676 15.6134C123.881 14.9267 122.585 17.9956 121.435 18.6597Z" fill="#8F4FC2" stroke="#583276" stroke-width="0.1" stroke-linecap="round" stroke-linejoin="round"/>
<path d="M119.245 17.1695C118.369 18.2351 116.186 18.687 114.936 19.106C114.727 19.147 114.315 19.1296 114.338 18.7323C114.39 17.5658 114.003 15.8331 115.054 14.5533C115.613 13.8738 117.927 13.2623 117.15 15.8614C119.723 14.3835 119.804 16.49 119.245 17.1695Z" fill="#AC68E1" stroke="#583276" stroke-width="0.1" stroke-linecap="round" stroke-linejoin="round"/>
<path d="M114.338 18.7322C114.315 19.1295 114.727 19.1469 114.936 19.106C115.342 18.9701 115.845 18.8308 116.37 18.6682C115.708 18.6513 114.369 18.3865 114.314 17.4631C114.326 17.9222 114.355 18.3566 114.338 18.7322Z" fill="#F5CF6C" stroke="#F5CF6C" stroke-width="0.1" stroke-linecap="round" stroke-linejoin="round"/>
<path d="M114.091 19.0324C114.515 18.8861 114.667 19.2206 114.69 19.4061C114.673 19.7844 114.683 20.2446 114.676 20.7303C114.444 20.1891 113.726 19.1698 112.705 19.4216C113.207 19.2835 113.688 19.1673 114.091 19.0324Z" fill="#F5CF6C" stroke="#F5CF6C" stroke-width="0.1" stroke-linecap="round" stroke-linejoin="round"/>
<path d="M114.885 18.8879C114.454 18.9223 114.378 19.3002 114.394 19.4848C114.487 19.8353 114.569 20.2747 114.674 20.7306C114.784 20.1248 115.258 18.869 116.273 18.6916C115.771 18.7655 115.293 18.8515 114.885 18.8879Z" fill="#F5CF6C" stroke="#F5CF6C" stroke-width="0.1" stroke-linecap="round" stroke-linejoin="round"/>
<path d="M114.583 18.7143C114.692 19.0713 114.317 19.2423 114.116 19.2832C113.713 19.3107 113.219 19.3719 112.7 19.4199C113.305 19.1552 114.477 18.4083 114.322 17.5384C114.414 17.965 114.484 18.3752 114.583 18.7143Z" fill="#F5CF6C" stroke="#F5CF6C" stroke-width="0.1" stroke-linecap="round" stroke-linejoin="round"/>
<ellipse cx="114.53" cy="19.072" rx="0.418719" ry="0.351759" transform="rotate(-30 114.53 19.072)" fill="#55794F"/>
<path d="M4.27939 34.4267C4.60678 36.1455 7.32571 37.6325 8.74448 38.6874C9.00659 38.8268 9.60859 38.9771 9.91969 38.4635C10.8513 36.961 12.8991 34.9242 12.5059 32.8598C12.2971 31.7637 9.52915 30.0193 8.39263 33.6432C6.00351 30.6909 4.07062 33.3307 4.27939 34.4267Z" fill="#8F4FC2" stroke="#583276" stroke-width="0.1" stroke-linecap="round" stroke-linejoin="round"/>
<path d="M5.22459 37.553C5.99466 38.5104 8.21422 38.7633 9.46351 39.0632C9.67619 39.0852 10.1092 39.0335 10.1399 38.6508C10.2434 37.5261 10.8842 35.816 9.95936 34.666C9.4683 34.0555 7.13341 33.6592 7.59197 36.1095C5.10422 34.8964 4.73353 36.9424 5.22459 37.553Z" fill="#AC68E1" stroke="#583276" stroke-width="0.1" stroke-linecap="round" stroke-linejoin="round"/>
<path d="M4.01547 43.2766C6.06148 42.8869 7.98834 40.4737 9.32242 39.1965C9.5035 38.9641 9.71939 38.4413 9.13437 38.2092C7.42419 37.5118 5.15646 35.8976 2.69912 36.3656C1.39443 36.6141 -0.838846 39.0857 3.3573 39.8211C-0.274698 42.0475 2.71078 43.5251 4.01547 43.2766Z" fill="#8F4FC2" stroke="#583276" stroke-width="0.1" stroke-linecap="round" stroke-linejoin="round"/>
<path d="M7.91331 43.0783C9.0909 42.3602 9.53172 40.4521 9.96547 39.368C10.0051 39.1853 9.97204 38.8195 9.52315 38.818C8.20476 38.8022 6.23139 38.3661 4.81706 39.2285C4.06615 39.6863 3.44895 41.702 6.36518 41.1534C4.77592 43.3519 7.16239 43.5361 7.91331 43.0783Z" fill="#AC68E1" stroke="#583276" stroke-width="0.1" stroke-linecap="round" stroke-linejoin="round"/>
<path d="M6.23745 44.7062C5.91006 42.9873 7.89199 40.605 8.82364 39.1024C9.01616 38.8764 9.52073 38.5153 9.99885 38.8786C11.4176 39.9334 14.0707 41.0749 14.4639 43.1392C14.6727 44.2353 12.7398 46.8751 10.3507 43.9227C9.21418 47.5466 6.44622 45.8022 6.23745 44.7062Z" fill="#8F4FC2" stroke="#583276" stroke-width="0.1" stroke-linecap="round" stroke-linejoin="round"/>
<path d="M9.86099 43.3177C9.09092 42.3603 9.57693 40.4577 9.68043 39.333C9.72943 39.1514 9.93329 38.8148 10.3568 38.9205C11.6061 39.2204 13.6709 39.2808 14.5958 40.4308C15.0868 41.0414 14.7161 43.0873 12.2284 41.8743C12.6869 44.3246 10.352 43.9283 9.86099 43.3177Z" fill="#AC68E1" stroke="#583276" stroke-width="0.1" stroke-linecap="round" stroke-linejoin="round"/>
<path d="M16.5807 40.8833C14.5347 41.273 11.8557 39.7371 10.1455 39.0397C9.89165 38.8902 9.49869 38.4833 9.95742 38.0524C11.2915 36.7752 12.807 34.4404 15.2644 33.9723C16.5691 33.7238 19.5545 35.2014 15.9225 37.4278C20.1187 38.1632 17.8854 40.6347 16.5807 40.8833Z" fill="#8F4FC2" stroke="#583276" stroke-width="0.1" stroke-linecap="round" stroke-linejoin="round"/>
<path d="M15.0033 38.7553C13.8257 39.4733 11.6156 39.1816 10.2972 39.1658C10.0865 39.1357 9.70306 38.9836 9.85491 38.6158C10.2887 37.5317 10.4927 35.7679 11.9071 34.9055C12.658 34.4477 15.0445 34.6319 13.4552 36.8304C16.3714 36.2818 15.7542 38.2975 15.0033 38.7553Z" fill="#AC68E1" stroke="#583276" stroke-width="0.1" stroke-linecap="round" stroke-linejoin="round"/>
<path d="M9.85492 38.6158C9.70307 38.9836 10.0865 39.1357 10.2972 39.1658C10.7247 39.1709 11.2459 39.205 11.7953 39.2243C11.1754 38.9903 9.99859 38.2997 10.2506 37.4097C10.1105 37.847 9.9946 38.2666 9.85492 38.6158Z" fill="#F5CF6C" stroke="#F5CF6C" stroke-width="0.1" stroke-linecap="round" stroke-linejoin="round"/>
<path d="M9.52317 38.818C9.97206 38.8196 10.0051 39.1853 9.96549 39.368C9.82486 39.7195 9.68348 40.1577 9.51648 40.6138C9.47586 40.0265 9.13295 38.8275 8.0862 38.7294C8.60609 38.7643 9.0986 38.8129 9.52317 38.818Z" fill="#F5CF6C" stroke="#F5CF6C" stroke-width="0.1" stroke-linecap="round" stroke-linejoin="round"/>
<path d="M10.3203 38.9428C9.90239 38.8337 9.7064 39.1655 9.66064 39.3451C9.63251 39.7064 9.56592 40.1485 9.51501 40.6136C9.81815 40.0778 10.6787 39.0478 11.696 39.2144C11.197 39.1188 10.7173 39.0427 10.3203 38.9428Z" fill="#F5CF6C" stroke="#F5CF6C" stroke-width="0.1" stroke-linecap="round" stroke-linejoin="round"/>
<path d="M10.0926 38.6797C10.0779 39.0526 9.66736 39.0906 9.46391 39.063C9.07432 38.9563 8.58775 38.8515 8.08179 38.726C8.74059 38.6753 10.0932 38.3558 10.2333 37.4834C10.1793 37.9163 10.1105 38.3268 10.0926 38.6797Z" fill="#F5CF6C" stroke="#F5CF6C" stroke-width="0.1" stroke-linecap="round" stroke-linejoin="round"/>
<ellipse cx="9.92453" cy="39" rx="0.418719" ry="0.351759" transform="rotate(-10.7841 9.92453 39)" fill="#55794F"/>
<path d="M105.609 64.7558C105.936 66.4746 108.655 67.9616 110.074 69.0164C110.336 69.1558 110.938 69.3062 111.249 68.7926C112.181 67.29 114.228 65.2532 113.835 63.1889C113.626 62.0928 110.858 60.3484 109.722 63.9723C107.333 61.0199 105.4 63.6597 105.609 64.7558Z" fill="#8F4FC2" stroke="#583276" stroke-width="0.1" stroke-linecap="round" stroke-linejoin="round"/>
<path d="M106.554 67.882C107.324 68.8395 109.543 69.0924 110.793 69.3923C111.005 69.4143 111.438 69.3626 111.469 68.9799C111.573 67.8551 112.213 66.1451 111.288 64.9951C110.797 64.3845 108.463 63.9882 108.921 66.4386C106.433 65.2255 106.063 67.2715 106.554 67.882Z" fill="#AC68E1" stroke="#583276" stroke-width="0.1" stroke-linecap="round" stroke-linejoin="round"/>
<path d="M105.345 73.6056C107.391 73.2159 109.317 70.8027 110.652 69.5255C110.833 69.2931 111.048 68.7703 110.463 68.5382C108.753 67.8409 106.486 66.2267 104.028 66.6947C102.724 66.9432 100.49 69.4148 104.686 70.1502C101.054 72.3766 104.04 73.8541 105.345 73.6056Z" fill="#8F4FC2" stroke="#583276" stroke-width="0.1" stroke-linecap="round" stroke-linejoin="round"/>
<path d="M109.242 73.4073C110.42 72.6893 110.861 70.7812 111.294 69.6971C111.334 69.5144 111.301 69.1486 110.852 69.1471C109.534 69.1313 107.56 68.6952 106.146 69.5575C105.395 70.0154 104.778 72.031 107.694 71.4824C106.105 73.681 108.491 73.8652 109.242 73.4073Z" fill="#AC68E1" stroke="#583276" stroke-width="0.1" stroke-linecap="round" stroke-linejoin="round"/>
<path d="M107.566 75.0352C107.239 73.3164 109.221 70.9341 110.153 69.4315C110.345 69.2055 110.85 68.8444 111.328 69.2076C112.747 70.2625 115.4 71.4039 115.793 73.4683C116.002 74.5644 114.069 77.2041 111.68 74.2518C110.543 77.8757 107.775 76.1313 107.566 75.0352Z" fill="#8F4FC2" stroke="#583276" stroke-width="0.1" stroke-linecap="round" stroke-linejoin="round"/>
<path d="M111.19 73.6468C110.42 72.6893 110.906 70.7868 111.01 69.662C111.059 69.4805 111.263 69.1439 111.686 69.2496C112.935 69.5495 115 69.6099 115.925 70.7599C116.416 71.3704 116.045 73.4164 113.558 72.2034C114.016 74.6537 111.681 74.2574 111.19 73.6468Z" fill="#AC68E1" stroke="#583276" stroke-width="0.1" stroke-linecap="round" stroke-linejoin="round"/>
<path d="M117.91 71.2123C115.864 71.602 113.185 70.0661 111.475 69.3688C111.221 69.2192 110.828 68.8124 111.287 68.3815C112.621 67.1043 114.136 64.7695 116.593 64.3014C117.898 64.0529 120.884 65.5304 117.252 67.7569C121.448 68.4922 119.215 70.9638 117.91 71.2123Z" fill="#8F4FC2" stroke="#583276" stroke-width="0.1" stroke-linecap="round" stroke-linejoin="round"/>
<path d="M116.332 69.0844C115.155 69.8024 112.945 69.5106 111.626 69.4948C111.416 69.4648 111.032 69.3127 111.184 68.9449C111.618 67.8607 111.822 66.097 113.236 65.2346C113.987 64.7768 116.374 64.961 114.784 67.1595C117.701 66.6109 117.083 68.6265 116.332 69.0844Z" fill="#AC68E1" stroke="#583276" stroke-width="0.1" stroke-linecap="round" stroke-linejoin="round"/>
<path d="M111.184 68.9449C111.032 69.3127 111.416 69.4648 111.626 69.4948C112.054 69.4999 112.575 69.5341 113.125 69.5534C112.505 69.3194 111.328 68.6288 111.58 67.7388C111.44 68.1761 111.324 68.5957 111.184 68.9449Z" fill="#F5CF6C" stroke="#F5CF6C" stroke-width="0.1" stroke-linecap="round" stroke-linejoin="round"/>
<path d="M110.852 69.1471C111.301 69.1486 111.334 69.5144 111.295 69.6971C111.154 70.0486 111.013 70.4867 110.846 70.9428C110.805 70.3556 110.462 69.1566 109.415 69.0585C109.935 69.0933 110.428 69.142 110.852 69.1471Z" fill="#F5CF6C" stroke="#F5CF6C" stroke-width="0.1" stroke-linecap="round" stroke-linejoin="round"/>
<path d="M111.65 69.2719C111.232 69.1627 111.036 69.4946 110.99 69.6741C110.962 70.0355 110.895 70.4776 110.844 70.9427C111.147 70.4068 112.008 69.3768 113.025 69.5435C112.526 69.4478 112.046 69.3718 111.65 69.2719Z" fill="#F5CF6C" stroke="#F5CF6C" stroke-width="0.1" stroke-linecap="round" stroke-linejoin="round"/>
<path d="M111.422 69.0088C111.407 69.3817 110.996 69.4197 110.793 69.3921C110.403 69.2854 109.917 69.1806 109.411 69.0551C110.07 69.0044 111.422 68.6849 111.562 67.8125C111.508 68.2454 111.44 68.6559 111.422 69.0088Z" fill="#F5CF6C" stroke="#F5CF6C" stroke-width="0.1" stroke-linecap="round" stroke-linejoin="round"/>
<ellipse cx="111.254" cy="69.329" rx="0.418719" ry="0.351759" transform="rotate(-10.7841 111.254 69.329)" fill="#55794F"/>
</svg>
