<svg width="170" height="190" viewBox="0 0 170 190" fill="none" xmlns="http://www.w3.org/2000/svg">
<path d="M25 60.8984L53.5 169.398M73.5 79.3984L60 177.398M137 69.8984L75 185.398M109.5 37.8984L79.5 169.398M66.5 35.8984L75 165.898M93 96.3984L67.5 185.398" stroke="#55794F" stroke-linecap="round" stroke-linejoin="round"/>
<path d="M29.097 45.42C27.7119 42.9634 26.2114 44.3964 25.6343 45.42C24.2492 47.8765 25.0572 53.6086 25.6343 56.1675H29.097C29.6741 53.6086 30.4821 47.8765 29.097 45.42Z" fill="#DEC585" stroke="#76563F" stroke-width="0.5" stroke-linecap="round" stroke-linejoin="round"/>
<path d="M15.0518 49.3072C12.1136 48.4386 12.1952 50.3928 12.6033 51.4785C13.5827 54.0841 18.7246 57.6306 21.1731 59.0781L23.6216 56.9068C21.9893 54.7355 17.99 50.1757 15.0518 49.3072Z" fill="#DEC585" stroke="#76563F" stroke-width="0.5" stroke-linecap="round" stroke-linejoin="round"/>
<path d="M8.21975 60.8631C5.44956 62.0913 7.0655 63.422 8.21975 63.9338C10.9899 65.1621 17.4537 64.4455 20.3393 63.9338L20.3393 60.8631C17.4537 60.3513 10.9899 59.6348 8.21975 60.8631Z" fill="#DEC585" stroke="#76563F" stroke-width="0.5" stroke-linecap="round" stroke-linejoin="round"/>
<path d="M12.6033 73.3183C11.6238 75.9239 13.8275 75.8516 15.0518 75.4897C17.99 74.6211 21.9892 70.0613 23.6216 67.89L21.1731 65.7187C18.7246 67.1662 13.5827 70.7127 12.6033 73.3183Z" fill="#DEC585" stroke="#76563F" stroke-width="0.5" stroke-linecap="round" stroke-linejoin="round"/>
<path d="M29.097 79.3769C27.7119 81.8334 26.2114 80.4004 25.6343 79.3769C24.2492 76.9203 25.0572 71.1883 25.6343 68.6293H29.097C29.6741 71.1883 30.4821 76.9203 29.097 79.3769Z" fill="#DEC585" stroke="#76563F" stroke-width="0.5" stroke-linecap="round" stroke-linejoin="round"/>
<path d="M42.1281 73.3183C43.1075 75.9239 40.9038 75.8516 39.6796 75.4897C36.7413 74.6211 32.7421 70.0613 31.1097 67.89L33.5583 65.7187C36.0068 67.1662 41.1487 70.7127 42.1281 73.3183Z" fill="#DEC585" stroke="#76563F" stroke-width="0.5" stroke-linecap="round" stroke-linejoin="round"/>
<path d="M46.5116 60.8631C49.2818 62.0913 47.6658 63.422 46.5116 63.9338C43.7414 65.1621 37.2776 64.4455 34.392 63.9338L34.392 60.8631C37.2776 60.3513 43.7414 59.6348 46.5116 60.8631Z" fill="#DEC585" stroke="#76563F" stroke-width="0.5" stroke-linecap="round" stroke-linejoin="round"/>
<path d="M39.6796 49.3072C42.6179 48.4386 42.5362 50.3928 42.1281 51.4785C41.1487 54.0841 36.0068 57.6306 33.5583 59.0781L31.1098 56.9068C32.7422 54.7355 36.7414 50.1757 39.6796 49.3072Z" fill="#DEC585" stroke="#76563F" stroke-width="0.5" stroke-linecap="round" stroke-linejoin="round"/>
<path d="M21.4209 45.9139C19.1879 43.9686 18.4205 45.7487 18.316 46.882C18.0651 49.6017 21.102 54.8182 22.6518 57.0865L25.7567 56.1185C25.2419 53.5275 23.6539 47.8591 21.4209 45.9139Z" fill="#E8CD88" stroke="#76563F" stroke-width="0.5" stroke-linecap="round" stroke-linejoin="round"/>
<path d="M9.77422 53.8248C6.68891 53.8217 7.57942 55.6036 8.41035 56.495C10.4046 58.6343 16.6489 60.5107 19.5218 61.1815L20.8857 58.5114C18.4674 56.9505 12.8595 53.8279 9.77422 53.8248Z" fill="#E8CD88" stroke="#76563F" stroke-width="0.5" stroke-linecap="round" stroke-linejoin="round"/>
<path d="M7.92258 66.6227C5.86205 68.6313 7.91986 69.4714 9.20633 69.6403C12.2939 70.0458 18.0004 67.4714 20.4677 66.1335L19.184 63.1159C16.2887 63.4479 9.98311 64.6141 7.92258 66.6227Z" fill="#E8CD88" stroke="#76563F" stroke-width="0.5" stroke-linecap="round" stroke-linejoin="round"/>
<path d="M16.8481 77.0496C17.033 79.804 19.1139 79.1176 20.1312 78.4301C22.5728 76.78 24.4396 71.3194 25.0677 68.7953L21.7847 67.4149C20.0621 69.4788 16.6632 74.2952 16.8481 77.0496Z" fill="#E8CD88" stroke="#76563F" stroke-width="0.5" stroke-linecap="round" stroke-linejoin="round"/>
<path d="M34.6841 77.9149C34.4332 80.6346 32.5096 79.6935 31.5792 78.8829C29.3462 76.9377 27.7582 71.2693 27.2434 68.6783L30.3483 67.7103C31.8981 69.9786 34.935 75.1952 34.6841 77.9149Z" fill="#E8CD88" stroke="#76563F" stroke-width="0.5" stroke-linecap="round" stroke-linejoin="round"/>
<path d="M44.5897 68.3018C46.5839 70.4411 44.5113 70.9733 43.2258 70.972C40.1405 70.9689 34.5326 67.8463 32.1143 66.2854L33.4782 63.6153C36.3511 64.2861 42.5955 66.1625 44.5897 68.3018Z" fill="#E8CD88" stroke="#76563F" stroke-width="0.5" stroke-linecap="round" stroke-linejoin="round"/>
<path d="M43.7938 55.1565C46.8813 55.562 45.9361 57.3372 45.0776 58.1741C43.017 60.1827 36.7114 61.3489 33.8162 61.6809L32.5324 58.6633C34.9998 57.3254 40.7063 54.751 43.7938 55.1565Z" fill="#E8CD88" stroke="#76563F" stroke-width="0.5" stroke-linecap="round" stroke-linejoin="round"/>
<path d="M32.8689 46.3668C35.3105 44.7167 36.075 46.5995 36.152 47.7472C36.3369 50.5016 32.938 55.318 31.2154 57.3819L27.9323 56.0015C28.5605 53.4774 30.4273 48.0168 32.8689 46.3668Z" fill="#E8CD88" stroke="#76563F" stroke-width="0.5" stroke-linecap="round" stroke-linejoin="round"/>
<path d="M26.7745 54.754C31.4464 54.7542 35.1808 58.1066 35.1808 62.1808C35.1808 66.255 31.4464 69.6073 26.7745 69.6075C22.1025 69.6075 18.3673 66.2551 18.3673 62.1808C18.3673 58.1065 22.1025 54.754 26.7745 54.754Z" fill="#76563F" stroke="#76563F" stroke-width="0.5"/>
<path d="M26.8002 56.6902C30.2152 56.6902 32.9308 59.1389 32.931 62.0984C32.931 65.0582 30.2153 67.5076 26.8002 67.5076C23.3851 67.5075 20.6693 65.0581 20.6693 62.0984C20.6696 59.139 23.3853 56.6903 26.8002 56.6902Z" fill="#A78268" stroke="#76563F" stroke-width="0.5"/>
<path d="M66.985 61.3598C64.6573 59.7677 63.944 61.7162 63.8784 62.8894C63.7209 65.7051 66.9777 70.4907 68.6257 72.5316L71.7323 71.0021C71.1198 68.4514 69.3128 62.952 66.985 61.3598Z" fill="#DEC585" stroke="#76563F" stroke-width="0.5" stroke-linecap="round" stroke-linejoin="round"/>
<path d="M56.1012 71.0513C53.0815 71.5699 54.0179 73.2871 54.8636 74.0808C56.8932 75.9858 63.0728 76.8963 65.9089 77.1135L67.1465 74.0839C64.723 72.8569 59.1209 70.5326 56.1012 71.0513Z" fill="#DEC585" stroke="#76563F" stroke-width="0.5" stroke-linecap="round" stroke-linejoin="round"/>
<path d="M55.0763 84.4365C53.1336 86.7621 55.1711 87.2421 56.4327 87.1914C59.4605 87.0697 64.943 83.5718 67.3058 81.838L65.9494 79.0831C63.1345 79.8986 57.019 82.1109 55.0763 84.4365Z" fill="#DEC585" stroke="#76563F" stroke-width="0.5" stroke-linecap="round" stroke-linejoin="round"/>
<path d="M64.5105 93.6746C64.7828 96.4448 66.7278 95.4065 67.6663 94.5411C69.9187 92.464 71.4926 86.6066 71.9979 83.9376L68.8421 83.0711C67.2848 85.4513 64.2383 90.9043 64.5105 93.6746Z" fill="#DEC585" stroke="#76563F" stroke-width="0.5" stroke-linecap="round" stroke-linejoin="round"/>
<path d="M81.9841 91.8245C81.8266 94.6402 79.8474 94.0174 78.8775 93.354C76.5498 91.7619 74.7427 86.2625 74.1302 83.7118L77.2368 82.1823C78.8849 84.2231 82.1417 89.0087 81.9841 91.8245Z" fill="#DEC585" stroke="#76563F" stroke-width="0.5" stroke-linecap="round" stroke-linejoin="round"/>
<path d="M90.999 80.633C93.0286 82.538 91.0196 83.4465 89.7614 83.6626C86.7417 84.1812 81.1397 81.8569 78.7161 80.6299L79.9537 77.6004C82.7898 77.8175 88.9694 78.728 90.999 80.633Z" fill="#DEC585" stroke="#76563F" stroke-width="0.5" stroke-linecap="round" stroke-linejoin="round"/>
<path d="M89.4301 67.5225C92.4579 67.4008 91.5959 69.3084 90.7864 70.2774C88.8437 72.603 82.7282 74.8153 79.9133 75.6307L78.5569 72.8758C80.9197 71.1421 86.4022 67.6441 89.4301 67.5225Z" fill="#DEC585" stroke="#76563F" stroke-width="0.5" stroke-linecap="round" stroke-linejoin="round"/>
<path d="M78.1962 60.1728C80.4486 58.0958 81.2386 59.885 81.352 61.0393C81.6243 63.8095 78.5777 69.2625 77.0204 71.6428L73.8646 70.7763C74.37 68.1072 75.9438 62.2499 78.1962 60.1728Z" fill="#DEC585" stroke="#76563F" stroke-width="0.5" stroke-linecap="round" stroke-linejoin="round"/>
<path d="M60.3164 65.1937C57.4538 64.4348 57.5516 66.3708 57.9584 67.4336C58.9346 69.9845 63.9635 73.3231 66.3559 74.6735L68.7138 72.4336C67.1074 70.3365 63.179 65.9525 60.3164 65.1937Z" fill="#E8CD88" stroke="#76563F" stroke-width="0.5" stroke-linecap="round" stroke-linejoin="round"/>
<path d="M53.3619 77.4355C50.5925 78.7955 52.1785 80.0008 53.3177 80.4335C56.0518 81.4719 62.4828 80.3971 65.3565 79.73L65.4007 76.732C62.5417 76.3998 56.1313 76.0755 53.3619 77.4355Z" fill="#E8CD88" stroke="#76563F" stroke-width="0.5" stroke-linecap="round" stroke-linejoin="round"/>
<path d="M57.3537 89.7351C56.3923 92.4473 58.6095 92.292 59.8383 91.8753C62.7874 90.8753 66.7699 86.045 68.3925 83.7549L65.9079 81.6146C63.4571 83.1914 58.3151 87.0229 57.3537 89.7351Z" fill="#E8CD88" stroke="#76563F" stroke-width="0.5" stroke-linecap="round" stroke-linejoin="round"/>
<path d="M69.9671 95.1471C71.3496 97.5366 72.9133 96.0016 73.5223 94.9354C74.9839 92.3766 74.2467 86.653 73.6954 84.111L70.1402 84.3228C69.5064 86.9353 68.5846 92.7577 69.9671 95.1471Z" fill="#E8CD88" stroke="#76563F" stroke-width="0.5" stroke-linecap="round" stroke-linejoin="round"/>
<path d="M86.3509 88.045C87.3272 90.5958 85.1857 90.6011 83.993 90.285C81.1303 89.5261 77.2019 85.1422 75.5955 83.045L77.9535 80.8051C80.3459 82.1555 85.3747 85.4941 86.3509 88.045Z" fill="#E8CD88" stroke="#76563F" stroke-width="0.5" stroke-linecap="round" stroke-linejoin="round"/>
<path d="M90.9916 75.0452C93.7256 76.0836 92.1013 77.4765 90.9474 78.0432C88.178 79.4032 81.7676 79.0788 78.9086 78.7467L78.9527 75.7487C81.8265 75.0815 88.2575 74.0068 90.9916 75.0452Z" fill="#E8CD88" stroke="#76563F" stroke-width="0.5" stroke-linecap="round" stroke-linejoin="round"/>
<path d="M84.471 63.6033C87.4201 62.6033 87.3562 64.6135 86.9556 65.7435C85.9942 68.4557 80.8522 72.2872 78.4014 73.8639L75.9168 71.7237C77.5394 69.4336 81.5219 64.6033 84.471 63.6033Z" fill="#E8CD88" stroke="#76563F" stroke-width="0.5" stroke-linecap="round" stroke-linejoin="round"/>
<path d="M70.7872 60.5432C72.2488 57.9844 73.7663 59.3359 74.3424 60.3315C75.7249 62.7209 74.803 68.5434 74.1693 71.1559L70.6141 71.3676C70.0627 68.8257 69.3255 63.1021 70.7872 60.5432Z" fill="#E8CD88" stroke="#76563F" stroke-width="0.5" stroke-linecap="round" stroke-linejoin="round"/>
<path d="M69.0243 70.7598C73.2157 68.6964 78.0469 70.0545 79.8465 73.7096C81.6461 77.3648 79.7766 82.022 75.5853 84.0858C71.3937 86.1495 66.5619 84.7917 64.7622 81.1364C62.9625 77.4811 64.8328 72.8235 69.0243 70.7598Z" fill="#76563F" stroke="#76563F" stroke-width="0.5"/>
<path d="M69.9026 72.4856C72.9663 70.9772 76.4843 71.9745 77.7918 74.6295C79.0991 77.2849 77.7447 80.682 74.6807 82.1905C71.6168 83.6989 68.0984 82.701 66.7911 80.0457C65.4841 77.3905 66.8389 73.9941 69.9026 72.4856Z" fill="#A78268" stroke="#76563F" stroke-width="0.5"/>
<path d="M85.9854 78.36C83.6576 76.7679 82.9444 78.7163 82.8788 79.8896C82.7212 82.7053 85.978 87.4909 87.6261 89.5318L90.7327 88.0022C90.1202 85.4516 88.3131 79.9522 85.9854 78.36Z" fill="#DEC585" stroke="#76563F" stroke-width="0.5" stroke-linecap="round" stroke-linejoin="round"/>
<path d="M75.1015 88.0514C72.0818 88.5701 73.0182 90.2873 73.8639 91.081C75.8935 92.986 82.0731 93.8965 84.9092 94.1137L86.1468 91.0841C83.7232 89.8571 78.1211 87.5328 75.1015 88.0514Z" fill="#DEC585" stroke="#76563F" stroke-width="0.5" stroke-linecap="round" stroke-linejoin="round"/>
<path d="M74.0767 101.437C72.1339 103.762 74.1714 104.242 75.433 104.192C78.4609 104.07 83.9434 100.572 86.3062 98.8382L84.9498 96.0833C82.1349 96.8987 76.0194 99.1111 74.0767 101.437Z" fill="#DEC585" stroke="#76563F" stroke-width="0.5" stroke-linecap="round" stroke-linejoin="round"/>
<path d="M83.5108 110.675C83.783 113.445 85.7281 112.407 86.6666 111.541C88.919 109.464 90.4928 103.607 90.9982 100.938L87.8424 100.071C86.2851 102.452 83.2385 107.905 83.5108 110.675Z" fill="#DEC585" stroke="#76563F" stroke-width="0.5" stroke-linecap="round" stroke-linejoin="round"/>
<path d="M100.984 108.825C100.827 111.64 98.8476 111.018 97.8778 110.354C95.55 108.762 93.743 103.263 93.1304 100.712L96.237 99.1824C97.8851 101.223 101.142 106.009 100.984 108.825Z" fill="#DEC585" stroke="#76563F" stroke-width="0.5" stroke-linecap="round" stroke-linejoin="round"/>
<path d="M109.999 97.6332C112.029 99.5382 110.02 100.447 108.762 100.663C105.742 101.181 100.14 98.8571 97.7163 97.6301L98.9539 94.6006C101.79 94.8177 107.97 95.7282 109.999 97.6332Z" fill="#DEC585" stroke="#76563F" stroke-width="0.5" stroke-linecap="round" stroke-linejoin="round"/>
<path d="M108.43 84.5227C111.458 84.401 110.596 86.3086 109.787 87.2776C107.844 89.6032 101.728 91.8155 98.9135 92.6309L97.5572 89.876C99.9199 88.1423 105.402 84.6443 108.43 84.5227Z" fill="#DEC585" stroke="#76563F" stroke-width="0.5" stroke-linecap="round" stroke-linejoin="round"/>
<path d="M97.1965 77.173C99.4489 75.096 100.239 76.8852 100.352 78.0395C100.625 80.8097 97.578 86.2627 96.0207 88.643L92.8649 87.7765C93.3702 85.1074 94.9441 79.2501 97.1965 77.173Z" fill="#DEC585" stroke="#76563F" stroke-width="0.5" stroke-linecap="round" stroke-linejoin="round"/>
<path d="M79.3168 82.1939C76.4541 81.435 76.552 83.371 76.9588 84.4338C77.935 86.9847 82.9638 90.3233 85.3562 91.6737L87.7142 89.4338C86.1078 87.3366 82.1794 82.9527 79.3168 82.1939Z" fill="#E8CD88" stroke="#76563F" stroke-width="0.5" stroke-linecap="round" stroke-linejoin="round"/>
<path d="M72.3621 94.4357C69.5927 95.7957 71.1787 97.001 72.3179 97.4337C75.052 98.4721 81.483 97.3973 84.3568 96.7301L84.4009 93.7322C81.5419 93.4 75.1315 93.0757 72.3621 94.4357Z" fill="#E8CD88" stroke="#76563F" stroke-width="0.5" stroke-linecap="round" stroke-linejoin="round"/>
<path d="M76.3538 106.735C75.3924 109.447 77.6097 109.292 78.8385 108.875C81.7876 107.875 85.7701 103.045 87.3927 100.755L84.908 98.6148C82.4572 100.192 77.3152 104.023 76.3538 106.735Z" fill="#E8CD88" stroke="#76563F" stroke-width="0.5" stroke-linecap="round" stroke-linejoin="round"/>
<path d="M88.9673 112.147C90.3498 114.537 91.9135 113.002 92.5225 111.936C93.9842 109.377 93.2469 103.653 92.6956 101.111L89.1404 101.323C88.5067 103.935 87.5848 109.758 88.9673 112.147Z" fill="#E8CD88" stroke="#76563F" stroke-width="0.5" stroke-linecap="round" stroke-linejoin="round"/>
<path d="M105.351 105.045C106.327 107.596 104.186 107.601 102.993 107.285C100.131 106.526 96.2022 102.142 94.5958 100.045L96.9537 97.8052C99.3461 99.1557 104.375 102.494 105.351 105.045Z" fill="#E8CD88" stroke="#76563F" stroke-width="0.5" stroke-linecap="round" stroke-linejoin="round"/>
<path d="M109.992 92.0453C112.726 93.0837 111.102 94.4767 109.948 95.0434C107.178 96.4034 100.768 96.079 97.9088 95.7468L97.953 92.7489C100.827 92.0817 107.258 91.0069 109.992 92.0453Z" fill="#E8CD88" stroke="#76563F" stroke-width="0.5" stroke-linecap="round" stroke-linejoin="round"/>
<path d="M103.471 80.6035C106.42 79.6035 106.356 81.6136 105.956 82.7437C104.994 85.4559 99.8525 89.2874 97.4016 90.8641L94.917 88.7239C96.5396 86.4338 100.522 81.6035 103.471 80.6035Z" fill="#E8CD88" stroke="#76563F" stroke-width="0.5" stroke-linecap="round" stroke-linejoin="round"/>
<path d="M89.7874 77.5434C91.249 74.9846 92.7666 76.3361 93.3426 77.3317C94.7251 79.7211 93.8033 85.5436 93.1695 88.1561L89.6143 88.3678C89.063 85.8259 88.3257 80.1023 89.7874 77.5434Z" fill="#E8CD88" stroke="#76563F" stroke-width="0.5" stroke-linecap="round" stroke-linejoin="round"/>
<path d="M88.0245 87.76C92.216 85.6966 97.0471 87.0547 98.8467 90.7098C100.646 94.365 98.7768 99.0221 94.5855 101.086C90.394 103.15 85.5621 101.792 83.7624 98.1366C81.9628 94.4813 83.833 89.8237 88.0245 87.76Z" fill="#76563F" stroke="#76563F" stroke-width="0.5"/>
<path d="M88.9029 89.4858C91.9667 87.9774 95.4846 88.9747 96.7921 91.6297C98.0995 94.2851 96.745 97.6822 93.6811 99.1907C90.6172 100.699 87.0988 99.7012 85.7915 97.0459C84.4845 94.3906 85.8393 90.9943 88.9029 89.4858Z" fill="#A78268" stroke="#76563F" stroke-width="0.5"/>
<path d="M129.985 52.36C127.658 50.7679 126.944 52.7163 126.879 53.8895C126.721 56.7053 129.978 61.4909 131.626 63.5317L134.733 62.0022C134.12 59.4515 132.313 53.9521 129.985 52.36Z" fill="#DEC585" stroke="#76563F" stroke-width="0.5" stroke-linecap="round" stroke-linejoin="round"/>
<path d="M119.101 62.0514C116.082 62.5701 117.018 64.2872 117.864 65.081C119.893 66.986 126.073 67.8965 128.909 68.1136L130.147 65.0841C127.723 63.8571 122.121 61.5328 119.101 62.0514Z" fill="#DEC585" stroke="#76563F" stroke-width="0.5" stroke-linecap="round" stroke-linejoin="round"/>
<path d="M118.077 75.4366C116.134 77.7622 118.171 78.2422 119.433 78.1915C122.461 78.0699 127.943 74.5719 130.306 72.8382L128.95 70.0833C126.135 70.8987 120.019 73.111 118.077 75.4366Z" fill="#DEC585" stroke="#76563F" stroke-width="0.5" stroke-linecap="round" stroke-linejoin="round"/>
<path d="M127.511 84.6747C127.783 87.445 129.728 86.4067 130.667 85.5412C132.919 83.4641 134.493 77.6068 134.998 74.9377L131.842 74.0713C130.285 76.4515 127.239 81.9045 127.511 84.6747Z" fill="#DEC585" stroke="#76563F" stroke-width="0.5" stroke-linecap="round" stroke-linejoin="round"/>
<path d="M144.984 82.8246C144.827 85.6404 142.848 85.0175 141.878 84.3542C139.55 82.762 137.743 77.2626 137.13 74.7119L140.237 73.1824C141.885 75.2233 145.142 80.0089 144.984 82.8246Z" fill="#DEC585" stroke="#76563F" stroke-width="0.5" stroke-linecap="round" stroke-linejoin="round"/>
<path d="M153.999 71.6332C156.029 73.5382 154.02 74.4467 152.762 74.6628C149.742 75.1814 144.14 72.8571 141.716 71.6301L142.954 68.6005C145.79 68.8177 151.97 69.7282 153.999 71.6332Z" fill="#DEC585" stroke="#76563F" stroke-width="0.5" stroke-linecap="round" stroke-linejoin="round"/>
<path d="M152.43 58.5226C155.458 58.4009 154.596 60.3085 153.787 61.2775C151.844 63.6031 145.728 65.8154 142.914 66.6309L141.557 63.876C143.92 62.1422 149.402 58.6443 152.43 58.5226Z" fill="#DEC585" stroke="#76563F" stroke-width="0.5" stroke-linecap="round" stroke-linejoin="round"/>
<path d="M141.196 51.173C143.449 49.0959 144.239 50.8852 144.352 52.0394C144.625 54.8097 141.578 60.2627 140.021 62.6429L136.865 61.7764C137.37 59.1074 138.944 53.25 141.196 51.173Z" fill="#DEC585" stroke="#76563F" stroke-width="0.5" stroke-linecap="round" stroke-linejoin="round"/>
<path d="M123.317 56.1939C120.454 55.435 120.552 57.371 120.959 58.4338C121.935 60.9847 126.964 64.3233 129.356 65.6737L131.714 63.4338C130.108 61.3366 126.179 56.9527 123.317 56.1939Z" fill="#E8CD88" stroke="#76563F" stroke-width="0.5" stroke-linecap="round" stroke-linejoin="round"/>
<path d="M116.362 68.4357C113.593 69.7957 115.179 71.001 116.318 71.4337C119.052 72.4721 125.483 71.3973 128.357 70.7301L128.401 67.7322C125.542 67.4 119.132 67.0757 116.362 68.4357Z" fill="#E8CD88" stroke="#76563F" stroke-width="0.5" stroke-linecap="round" stroke-linejoin="round"/>
<path d="M120.354 80.7352C119.393 83.4474 121.61 83.2921 122.839 82.8755C125.788 81.8755 129.77 77.0452 131.393 74.755L128.908 72.6148C126.457 74.1916 121.315 78.0231 120.354 80.7352Z" fill="#E8CD88" stroke="#76563F" stroke-width="0.5" stroke-linecap="round" stroke-linejoin="round"/>
<path d="M132.967 86.1473C134.35 88.5368 135.914 87.0018 136.523 85.9356C137.984 83.3768 137.247 77.6532 136.696 75.1112L133.14 75.3229C132.507 77.9355 131.585 83.7579 132.967 86.1473Z" fill="#E8CD88" stroke="#76563F" stroke-width="0.5" stroke-linecap="round" stroke-linejoin="round"/>
<path d="M149.351 79.0452C150.327 81.596 148.186 81.6013 146.993 81.2851C144.131 80.5263 140.202 76.1423 138.596 74.0452L140.954 71.8052C143.346 73.1557 148.375 76.4943 149.351 79.0452Z" fill="#E8CD88" stroke="#76563F" stroke-width="0.5" stroke-linecap="round" stroke-linejoin="round"/>
<path d="M153.992 66.0453C156.726 67.0837 155.102 68.4767 153.948 69.0434C151.178 70.4034 144.768 70.079 141.909 69.7468L141.953 66.7489C144.827 66.0817 151.258 65.0069 153.992 66.0453Z" fill="#E8CD88" stroke="#76563F" stroke-width="0.5" stroke-linecap="round" stroke-linejoin="round"/>
<path d="M147.471 54.6035C150.421 53.6035 150.357 55.6136 149.956 56.7437C148.995 59.4559 143.853 63.2874 141.402 64.8641L138.917 62.7239C140.54 60.4338 144.522 55.6035 147.471 54.6035Z" fill="#E8CD88" stroke="#76563F" stroke-width="0.5" stroke-linecap="round" stroke-linejoin="round"/>
<path d="M133.787 51.5434C135.249 48.9846 136.767 50.3361 137.343 51.3317C138.725 53.7211 137.803 59.5435 137.17 62.1561L133.614 62.3678C133.063 59.8258 132.326 54.1022 133.787 51.5434Z" fill="#E8CD88" stroke="#76563F" stroke-width="0.5" stroke-linecap="round" stroke-linejoin="round"/>
<path d="M132.025 61.76C136.216 59.6966 141.047 61.0547 142.847 64.7098C144.646 68.365 142.777 73.0221 138.586 75.0859C134.394 77.1496 129.562 75.7919 127.762 72.1366C125.963 68.4813 127.833 63.8237 132.025 61.76Z" fill="#76563F" stroke="#76563F" stroke-width="0.5"/>
<path d="M132.903 63.4858C135.967 61.9773 139.485 62.9746 140.792 65.6297C142.099 68.285 140.745 71.6821 137.681 73.1906C134.617 74.6991 131.099 73.7011 129.791 71.0459C128.484 68.3906 129.839 64.9942 132.903 63.4858Z" fill="#A78268" stroke="#76563F" stroke-width="0.5"/>
<path d="M97.7133 23.0989C95.0231 22.2529 94.9076 24.3245 95.1861 25.4661C95.8546 28.2059 100.363 31.8369 102.533 33.31L105.061 30.9428C103.732 28.6807 100.404 23.9449 97.7133 23.0989Z" fill="#DEC585" stroke="#76563F" stroke-width="0.5" stroke-linecap="round" stroke-linejoin="round"/>
<path d="M90.1202 35.5376C87.382 36.9124 88.7775 38.2828 89.8175 38.7962C92.3136 40.0283 98.4908 39.1015 101.267 38.4841L101.57 35.2255C98.8943 34.7567 92.8583 34.1628 90.1202 35.5376Z" fill="#DEC585" stroke="#76563F" stroke-width="0.5" stroke-linecap="round" stroke-linejoin="round"/>
<path d="M93.0337 48.642C91.8516 51.4322 93.9406 51.2986 95.1329 50.8831C97.9944 49.8858 102.222 44.944 103.978 42.5978L101.879 40.3567C99.4231 41.9559 94.2158 45.8517 93.0337 48.642Z" fill="#DEC585" stroke="#76563F" stroke-width="0.5" stroke-linecap="round" stroke-linejoin="round"/>
<path d="M104.748 54.7356C105.814 57.3068 107.373 55.7475 108.019 54.6465C109.57 52.004 109.371 45.9421 109.078 43.2415L105.807 43.3306C105.01 46.061 103.681 52.1644 104.748 54.7356Z" fill="#DEC585" stroke="#76563F" stroke-width="0.5" stroke-linecap="round" stroke-linejoin="round"/>
<path d="M120.927 47.8818C121.596 50.6216 119.521 50.6015 118.4 50.249C115.71 49.403 112.381 44.6672 111.053 42.4051L113.58 40.0379C115.75 41.5109 120.259 45.142 120.927 47.8818Z" fill="#DEC585" stroke="#76563F" stroke-width="0.5" stroke-linecap="round" stroke-linejoin="round"/>
<path d="M126.296 34.5517C128.792 35.7838 127.134 37.2375 125.993 37.8103C123.255 39.185 117.219 38.5911 114.544 38.1223L114.846 34.8637C117.623 34.2464 123.8 33.3196 126.296 34.5517Z" fill="#DEC585" stroke="#76563F" stroke-width="0.5" stroke-linecap="round" stroke-linejoin="round"/>
<path d="M120.98 22.4648C123.842 21.4675 123.572 23.5433 123.08 24.7059C121.898 27.4961 116.69 31.3919 114.234 32.9911L112.135 30.75C113.891 28.4038 118.119 23.4621 120.98 22.4648Z" fill="#DEC585" stroke="#76563F" stroke-width="0.5" stroke-linecap="round" stroke-linejoin="round"/>
<path d="M108.094 18.7014C109.645 16.0589 110.921 17.5409 111.366 18.6123C112.432 21.1835 111.104 27.2869 110.306 30.0173L107.035 30.1064C106.742 27.4058 106.544 21.3439 108.094 18.7014Z" fill="#DEC585" stroke="#76563F" stroke-width="0.5" stroke-linecap="round" stroke-linejoin="round"/>
<path d="M92.4486 28.7071C89.4891 28.8139 90.1459 30.6376 90.8443 31.5362C92.5205 33.6926 98.3031 35.4237 100.985 36.0197L102.589 33.1906C100.442 31.6516 95.4082 28.6002 92.4486 28.7071Z" fill="#E8CD88" stroke="#76563F" stroke-width="0.5" stroke-linecap="round" stroke-linejoin="round"/>
<path d="M89.3566 42.4426C87.1027 44.5495 88.9708 45.2413 90.1866 45.3238C93.1046 45.5218 98.9447 42.6225 101.5 41.1481L100.67 38.267C97.838 38.781 91.6106 40.3357 89.3566 42.4426Z" fill="#E8CD88" stroke="#76563F" stroke-width="0.5" stroke-linecap="round" stroke-linejoin="round"/>
<path d="M96.7542 53.0488C96.6235 55.9234 98.6997 55.1297 99.7541 54.3736C102.285 52.5588 104.69 46.7788 105.576 44.1157L102.576 42.7909C100.69 45.0125 96.8849 50.1742 96.7542 53.0488Z" fill="#E8CD88" stroke="#76563F" stroke-width="0.5" stroke-linecap="round" stroke-linejoin="round"/>
<path d="M110.396 54.557C112.414 56.4409 113.464 54.5174 113.736 53.3201C114.39 50.4467 112.02 45.1852 110.752 42.9136L107.413 44.1505C107.566 46.8344 108.378 52.6732 110.396 54.557Z" fill="#E8CD88" stroke="#76563F" stroke-width="0.5" stroke-linecap="round" stroke-linejoin="round"/>
<path d="M124.005 42.9954C125.681 45.1518 123.634 45.78 122.401 45.8245C119.441 45.9313 114.407 42.8799 112.26 41.3409L113.865 38.5118C116.546 39.1078 122.329 40.8389 124.005 42.9954Z" fill="#E8CD88" stroke="#76563F" stroke-width="0.5" stroke-linecap="round" stroke-linejoin="round"/>
<path d="M124.663 29.2077C127.581 29.4058 126.432 31.211 125.493 32.0889C123.239 34.1958 117.011 35.7505 114.18 36.2645L113.35 33.3834C115.905 31.909 121.745 29.0097 124.663 29.2077Z" fill="#E8CD88" stroke="#76563F" stroke-width="0.5" stroke-linecap="round" stroke-linejoin="round"/>
<path d="M115.096 20.1579C117.626 18.3432 118.15 20.285 118.095 21.4827C117.965 24.3573 114.16 29.519 112.274 31.7406L109.274 30.4158C110.16 27.7527 112.565 21.9727 115.096 20.1579Z" fill="#E8CD88" stroke="#76563F" stroke-width="0.5" stroke-linecap="round" stroke-linejoin="round"/>
<path d="M101.113 21.2114C101.767 18.338 103.612 19.1896 104.453 19.9745C106.471 21.8584 107.283 27.6971 107.437 30.381L104.097 31.6179C102.83 29.3464 100.459 24.0848 101.113 21.2114Z" fill="#E8CD88" stroke="#76563F" stroke-width="0.5" stroke-linecap="round" stroke-linejoin="round"/>
<path d="M102.399 31.499C105.809 28.3053 110.826 28.1991 113.611 31.1726C116.397 34.146 115.963 39.1456 112.553 42.3396C109.144 45.5335 104.126 45.6402 101.34 42.6667C98.5551 39.6931 98.9894 34.6929 102.399 31.499Z" fill="#76563F" stroke="#76563F" stroke-width="0.5"/>
<path d="M103.742 32.8945C106.234 30.56 109.89 30.4906 111.913 32.6504C113.937 34.8105 113.629 38.4547 111.137 40.7894C108.644 43.124 104.988 43.1929 102.964 41.0328C100.941 38.8727 101.249 35.2291 103.742 32.8945Z" fill="#A78268" stroke="#76563F" stroke-width="0.5"/>
<path d="M50.6736 23.817C47.8549 23.7263 48.3013 25.7526 48.8768 26.777C50.258 29.2358 55.5771 31.5195 58.0641 32.3541L59.8609 29.394C57.9729 27.5728 53.4923 23.9077 50.6736 23.817Z" fill="#DEC585" stroke="#76563F" stroke-width="0.5" stroke-linecap="round" stroke-linejoin="round"/>
<path d="M46.7083 37.8404C44.4411 39.9014 46.154 40.8456 47.2938 41.0602C50.0293 41.575 55.7292 39.0199 58.2372 37.678L57.6516 34.4582C54.9485 34.7269 48.9754 35.7794 46.7083 37.8404Z" fill="#DEC585" stroke="#76563F" stroke-width="0.5" stroke-linecap="round" stroke-linejoin="round"/>
<path d="M53.0413 49.677C52.6538 52.6824 54.6298 51.9916 55.6662 51.2705C58.1537 49.5398 60.8953 43.6426 61.9552 40.9103L59.3303 39.3169C57.3954 41.518 53.4288 46.6716 53.0413 49.677Z" fill="#DEC585" stroke="#76563F" stroke-width="0.5" stroke-linecap="round" stroke-linejoin="round"/>
<path d="M65.9631 52.3932C67.6822 54.5825 68.7638 52.6612 69.0897 51.4269C69.872 48.4645 68.0494 42.6797 67.0403 40.1576L63.9137 41.1239C63.8805 43.9681 64.244 50.2039 65.9631 52.3932Z" fill="#DEC585" stroke="#76563F" stroke-width="0.5" stroke-linecap="round" stroke-linejoin="round"/>
<path d="M79.701 41.4377C81.0822 43.8965 79.0786 44.4355 77.9041 44.3977C75.0854 44.307 70.6048 40.6419 68.7168 38.8207L70.5137 35.8607C73.0006 36.6952 78.3198 38.9789 79.701 41.4377Z" fill="#DEC585" stroke="#76563F" stroke-width="0.5" stroke-linecap="round" stroke-linejoin="round"/>
<path d="M81.2839 27.1545C84.0195 27.6693 82.8141 29.5155 81.8694 30.3743C79.6023 32.4353 73.6292 33.4878 70.9261 33.7564L70.3405 30.5366C72.8485 29.1947 78.5483 26.6396 81.2839 27.1545Z" fill="#DEC585" stroke="#76563F" stroke-width="0.5" stroke-linecap="round" stroke-linejoin="round"/>
<path d="M72.9115 16.9442C75.399 15.2135 75.6979 17.2854 75.5365 18.5376C75.149 21.543 71.1823 26.6966 69.2475 28.8977L66.6225 27.3043C67.6824 24.572 70.4241 18.6748 72.9115 16.9442Z" fill="#DEC585" stroke="#76563F" stroke-width="0.5" stroke-linecap="round" stroke-linejoin="round"/>
<path d="M59.4879 16.7879C60.2702 13.8255 61.8983 14.9093 62.6146 15.8215C64.3337 18.0108 64.6971 24.2466 64.664 27.0908L61.5373 28.0571C60.5283 25.535 58.7057 19.7502 59.4879 16.7879Z" fill="#DEC585" stroke="#76563F" stroke-width="0.5" stroke-linecap="round" stroke-linejoin="round"/>
<path d="M47.1126 30.6352C44.291 31.5346 45.4145 33.1143 46.3289 33.7917C48.5236 35.4174 54.5588 35.5283 57.302 35.3805L58.0857 32.2241C55.6037 31.3197 49.9342 29.7357 47.1126 30.6352Z" fill="#E8CD88" stroke="#76563F" stroke-width="0.5" stroke-linecap="round" stroke-linejoin="round"/>
<path d="M47.8314 44.6961C46.2277 47.3319 48.2131 47.4953 49.4062 47.2476C52.2698 46.653 57.1141 42.2888 59.1783 40.1811L57.6035 37.6296C55.0144 38.8869 49.4351 42.0603 47.8314 44.6961Z" fill="#E8CD88" stroke="#76563F" stroke-width="0.5" stroke-linecap="round" stroke-linejoin="round"/>
<path d="M57.8106 52.9199C58.4583 55.7236 60.2443 54.4005 61.0563 53.3885C63.0051 50.9596 63.7656 44.7456 63.9023 41.9422L60.6566 41.4737C59.438 44.1209 57.1628 50.1163 57.8106 52.9199Z" fill="#E8CD88" stroke="#76563F" stroke-width="0.5" stroke-linecap="round" stroke-linejoin="round"/>
<path d="M71.3553 50.7008C73.8058 51.9721 74.2988 49.8371 74.239 48.6107C74.0955 45.6673 70.3963 41.238 68.5646 39.3912L65.681 41.4814C66.5514 44.0248 68.9049 49.4296 71.3553 50.7008Z" fill="#E8CD88" stroke="#76563F" stroke-width="0.5" stroke-linecap="round" stroke-linejoin="round"/>
<path d="M81.3504 35.9031C83.5451 37.5289 81.7424 38.6848 80.5668 39.0596C77.7452 39.959 72.0757 38.3751 69.5937 37.4707L70.3773 34.3142C73.1206 34.1664 79.1558 34.2773 81.3504 35.9031Z" fill="#E8CD88" stroke="#76563F" stroke-width="0.5" stroke-linecap="round" stroke-linejoin="round"/>
<path d="M78.273 22.4472C81.1366 21.8526 80.5161 23.9004 79.8479 24.9987C78.2442 27.6344 72.6649 30.8079 70.0758 32.0651L68.501 29.5136C70.5652 27.4059 75.4095 23.0418 78.273 22.4472Z" fill="#E8CD88" stroke="#76563F" stroke-width="0.5" stroke-linecap="round" stroke-linejoin="round"/>
<path d="M66.623 16.3063C68.5718 13.8774 69.5988 15.6066 69.8687 16.7748C70.5164 19.5785 68.2412 25.5738 67.0227 28.221L63.777 27.7525C63.9137 24.9491 64.6742 18.7352 66.623 16.3063Z" fill="#E8CD88" stroke="#76563F" stroke-width="0.5" stroke-linecap="round" stroke-linejoin="round"/>
<path d="M53.4402 21.0841C53.2967 18.1407 55.3029 18.4642 56.3239 18.9939C58.7743 20.2652 61.1278 25.67 61.9982 28.2134L59.1146 30.3036C57.2829 28.4568 53.5837 24.0275 53.4402 21.0841Z" fill="#E8CD88" stroke="#76563F" stroke-width="0.5" stroke-linecap="round" stroke-linejoin="round"/>
<path d="M57.4474 30.646C59.8718 26.6525 64.6754 25.1998 68.1581 27.3139C71.6408 29.4281 72.5687 34.3599 70.1446 38.3536C67.7202 42.3474 62.9162 43.8007 59.4334 41.6865C55.9506 39.5723 55.023 34.6397 57.4474 30.646Z" fill="#76563F" stroke="#76563F" stroke-width="0.5"/>
<path d="M59.1159 31.6287C60.888 28.7095 64.3903 27.6588 66.9203 29.1943C69.4504 30.7301 70.135 34.3227 68.3629 37.242C66.5907 40.1613 63.0876 41.2118 60.5576 39.6759C58.0279 38.14 57.3439 34.5479 59.1159 31.6287Z" fill="#A78268" stroke="#76563F" stroke-width="0.5"/>
</svg>
