<svg width="163" height="156" viewBox="0 0 163 156" fill="none" xmlns="http://www.w3.org/2000/svg">
<path d="M12.1838 71.5L57.1838 155M47.1838 49.5L59.6838 149.5M59.6838 35.5L62.1838 144.5M80.1838 73.5L66.6838 155M110.184 57.5L72.6838 149.5M118.684 95.5L74.6838 155M150.184 46L82.6838 138.5M106.684 35.5L74.6838 138.5M80.1838 13.5L66.6838 138.5M21.1838 27L54.6838 144.5" stroke="#398A2C" stroke-width="0.5" stroke-linecap="round" stroke-linejoin="round"/>
<path d="M67.5697 32.0657C69.1511 39.1086 62.1221 34.6147 58.3689 34.8963L57.1648 33.6547C57.6325 33.55 66.117 25.5956 67.5697 32.0657Z" fill="#748BDE" stroke="#485686" stroke-width="0.1" stroke-linecap="round" stroke-linejoin="round"/>
<path d="M59.4137 26.1644C52.1499 24.9513 54.894 30.7474 55.5396 33.8476L59.4137 34.252C59.4137 33.8476 65.7845 27.2284 59.4137 26.1644Z" fill="#6C80C6" stroke="#485686" stroke-width="0.1" stroke-linecap="round" stroke-linejoin="round"/>
<path d="M62.7589 41.142C55.8463 43.3654 57.3746 37.2648 57.3819 34.118L61.1179 33.1714C61.2 33.5699 68.8217 39.192 62.7589 41.142Z" fill="#6C80C6" stroke="#485686" stroke-width="0.1" stroke-linecap="round" stroke-linejoin="round"/>
<path d="M49.1927 30.7968C47.2851 36.774 54.013 34.8968 57.8871 33.6837L58.8532 32.4701C58.3699 32.4446 50.8658 25.5545 49.1927 30.7968Z" fill="#748BDE" stroke="#485686" stroke-width="0.1" stroke-linecap="round" stroke-linejoin="round"/>
<path d="M50.615 38.8984C54.1814 43.5195 57.1011 38.2224 58.6756 35.0964L57.3975 33.1251C57.0584 33.4137 47.487 34.8454 50.615 38.8984Z" fill="#748BDE" stroke="#485686" stroke-width="0.1" stroke-linecap="round" stroke-linejoin="round"/>
<ellipse cx="58.3689" cy="33.6832" rx="2.90553" ry="2.42627" fill="#9BAFF3"/>
<path d="M58.3694 32.3157C59.3448 32.3159 60.0557 32.9682 60.0559 33.6829C60.0559 34.3977 59.3449 35.0508 58.3694 35.051C57.3936 35.051 56.6819 34.3978 56.6819 33.6829C56.6821 32.968 57.3937 32.3157 58.3694 32.3157Z" fill="#FCDC8A" stroke="#9BAFF3" stroke-width="0.5"/>
<path d="M116.936 63.6768C111.497 68.4223 112.1 60.1014 110.064 56.9355L110.582 55.2853C110.897 55.6467 121.933 59.3173 116.936 63.6768Z" fill="#748BDE" stroke="#485686" stroke-width="0.1" stroke-linecap="round" stroke-linejoin="round"/>
<path d="M118.24 53.6945C115.846 46.7299 112.057 51.9038 109.639 53.9483L111.129 57.5472C111.484 57.3546 120.339 59.8028 118.24 53.6945Z" fill="#6C80C6" stroke="#485686" stroke-width="0.1" stroke-linecap="round" stroke-linejoin="round"/>
<path d="M106.664 63.7706C101.416 58.7519 107.508 57.1896 110.279 55.6969L112.891 58.5308C112.579 58.7928 111.267 68.1724 106.664 63.7706Z" fill="#6C80C6" stroke="#485686" stroke-width="0.1" stroke-linecap="round" stroke-linejoin="round"/>
<path d="M109.298 46.9145C103.134 48.0846 107.989 53.1059 110.901 55.9342L112.428 56.2055C112.221 55.7684 114.704 45.8883 109.298 46.9145Z" fill="#748BDE" stroke="#485686" stroke-width="0.1" stroke-linecap="round" stroke-linejoin="round"/>
<path d="M102.852 52.0244C100.488 57.3615 106.536 57.4052 110.035 57.3005L111.159 55.2376C110.744 55.0769 104.925 47.3434 102.852 52.0244Z" fill="#748BDE" stroke="#485686" stroke-width="0.1" stroke-linecap="round" stroke-linejoin="round"/>
<ellipse cx="111.131" cy="56.3576" rx="2.90553" ry="2.42627" transform="rotate(61.551 111.131 56.3576)" fill="#9BAFF3"/>
<path d="M112.334 55.7066C112.798 56.5643 112.563 57.5001 111.935 57.8408C111.307 58.1813 110.394 57.8673 109.929 57.0097C109.464 56.1517 109.699 55.2148 110.328 54.8742C110.956 54.5338 111.869 54.8488 112.334 55.7066Z" fill="#FCDC8A" stroke="#9BAFF3" stroke-width="0.5"/>
<path d="M20.7381 74.6149C17.2691 80.945 14.9654 72.9266 11.963 70.6569L11.8802 68.9292C12.3004 69.1599 23.9249 68.7997 20.7381 74.6149Z" fill="#748BDE" stroke="#485686" stroke-width="0.1" stroke-linecap="round" stroke-linejoin="round"/>
<path d="M18.5189 64.7954C13.8704 59.0836 12.0981 65.2466 10.5332 67.9997L13.1728 70.864C13.4401 70.5606 22.596 69.8051 18.5189 64.7954Z" fill="#6C80C6" stroke="#485686" stroke-width="0.1" stroke-linecap="round" stroke-linejoin="round"/>
<path d="M11.1283 78.2452C4.47172 75.3441 9.6512 71.7768 11.7368 69.4204L15.1659 71.1797C14.964 71.5329 16.9666 80.7897 11.1283 78.2452Z" fill="#6C80C6" stroke="#485686" stroke-width="0.1" stroke-linecap="round" stroke-linejoin="round"/>
<path d="M7.78745 61.515C2.40494 64.739 8.69416 67.7778 12.403 69.4284L13.9302 69.1564C13.5844 68.8178 12.5082 58.6874 7.78745 61.515Z" fill="#748BDE" stroke="#485686" stroke-width="0.1" stroke-linecap="round" stroke-linejoin="round"/>
<path d="M3.49911 68.5342C3.12051 74.3592 8.81289 72.3145 12.0607 71.0097L12.4047 68.6856C11.9595 68.678 3.83117 63.4253 3.49911 68.5342Z" fill="#748BDE" stroke="#485686" stroke-width="0.1" stroke-linecap="round" stroke-linejoin="round"/>
<ellipse cx="12.7648" cy="69.7466" rx="2.90553" ry="2.42627" transform="rotate(41.3787 12.7648 69.7466)" fill="#9BAFF3"/>
<path d="M13.6692 68.7208C14.4009 69.3657 14.5032 70.3251 14.0309 70.8615C13.5584 71.3979 12.5932 71.418 11.861 70.7733C11.1288 70.1282 11.0266 69.1676 11.4992 68.6312C11.9719 68.0949 12.9371 68.0758 13.6692 68.7208Z" fill="#FCDC8A" stroke="#9BAFF3" stroke-width="0.5"/>
<path d="M30.4051 31.0356C26.9361 37.3657 24.6324 29.3473 21.63 27.0776L21.5472 25.3499C21.9674 25.5806 33.5919 25.2205 30.4051 31.0356Z" fill="#748BDE" stroke="#485686" stroke-width="0.1" stroke-linecap="round" stroke-linejoin="round"/>
<path d="M28.1859 21.2162C23.5374 15.5043 21.7651 21.6673 20.2002 24.4204L22.8398 27.2847C23.1071 26.9813 32.263 26.2258 28.1859 21.2162Z" fill="#6C80C6" stroke="#485686" stroke-width="0.1" stroke-linecap="round" stroke-linejoin="round"/>
<path d="M20.7953 34.666C14.1387 31.7648 19.3182 28.1975 21.4038 25.8411L24.8329 27.6004C24.631 27.9536 26.6336 37.2105 20.7953 34.666Z" fill="#6C80C6" stroke="#485686" stroke-width="0.1" stroke-linecap="round" stroke-linejoin="round"/>
<path d="M17.4544 17.9357C12.0719 21.1597 18.3612 24.1985 22.07 25.8491L23.5972 25.5771C23.2514 25.2385 22.1752 15.1081 17.4544 17.9357Z" fill="#748BDE" stroke="#485686" stroke-width="0.1" stroke-linecap="round" stroke-linejoin="round"/>
<path d="M13.1661 24.9549C12.7875 30.7799 18.4799 28.7352 21.7277 27.4305L22.0717 25.1063C21.6264 25.0988 13.4982 19.846 13.1661 24.9549Z" fill="#748BDE" stroke="#485686" stroke-width="0.1" stroke-linecap="round" stroke-linejoin="round"/>
<ellipse cx="22.4318" cy="26.1673" rx="2.90553" ry="2.42627" transform="rotate(41.3787 22.4318 26.1673)" fill="#9BAFF3"/>
<path d="M23.3362 25.1415C24.0679 25.7864 24.1702 26.7458 23.6979 27.2822C23.2254 27.8186 22.2602 27.8387 21.528 27.194C20.7958 26.5489 20.6936 25.5883 21.1662 25.0519C21.6389 24.5157 22.6041 24.4966 23.3362 25.1415Z" fill="#FCDC8A" stroke="#9BAFF3" stroke-width="0.5"/>
<path d="M88.4051 17.0356C84.9361 23.3657 82.6324 15.3473 79.63 13.0776L79.5472 11.3499C79.9674 11.5806 91.5919 11.2205 88.4051 17.0356Z" fill="#748BDE" stroke="#485686" stroke-width="0.1" stroke-linecap="round" stroke-linejoin="round"/>
<path d="M86.1859 7.21616C81.5374 1.50427 79.7651 7.66735 78.2002 10.4204L80.8398 13.2847C81.1071 12.9813 90.263 12.2258 86.1859 7.21616Z" fill="#6C80C6" stroke="#485686" stroke-width="0.1" stroke-linecap="round" stroke-linejoin="round"/>
<path d="M78.7953 20.666C72.1387 17.7648 77.3182 14.1975 79.4038 11.8411L82.8329 13.6004C82.631 13.9536 84.6336 23.2105 78.7953 20.666Z" fill="#6C80C6" stroke="#485686" stroke-width="0.1" stroke-linecap="round" stroke-linejoin="round"/>
<path d="M75.4544 3.93572C70.0719 7.1597 76.3612 10.1985 80.07 11.8491L81.5972 11.5771C81.2514 11.2385 80.1752 1.10808 75.4544 3.93572Z" fill="#748BDE" stroke="#485686" stroke-width="0.1" stroke-linecap="round" stroke-linejoin="round"/>
<path d="M71.1661 10.9549C70.7875 16.7799 76.4799 14.7352 79.7277 13.4305L80.0717 11.1063C79.6264 11.0988 71.4982 5.84605 71.1661 10.9549Z" fill="#748BDE" stroke="#485686" stroke-width="0.1" stroke-linecap="round" stroke-linejoin="round"/>
<ellipse cx="80.4318" cy="12.1673" rx="2.90553" ry="2.42627" transform="rotate(41.3787 80.4318 12.1673)" fill="#9BAFF3"/>
<path d="M81.3362 11.1415C82.0679 11.7864 82.1702 12.7458 81.6979 13.2822C81.2254 13.8186 80.2602 13.8387 79.528 13.194C78.7958 12.5489 78.6936 11.5883 79.1662 11.0519C79.6389 10.5157 80.6041 10.4966 81.3362 11.1415Z" fill="#FCDC8A" stroke="#9BAFF3" stroke-width="0.5"/>
<path d="M159.939 45.7213C159.644 52.9335 154.017 46.7735 150.319 46.0741L149.477 44.5631C149.956 44.5831 160.21 39.0957 159.939 45.7213Z" fill="#748BDE" stroke="#485686" stroke-width="0.1" stroke-linecap="round" stroke-linejoin="round"/>
<path d="M153.589 37.9101C146.886 34.8583 148.037 41.1671 147.858 44.3289L151.495 45.7221C151.6 45.3315 159.467 40.5868 153.589 37.9101Z" fill="#6C80C6" stroke="#485686" stroke-width="0.1" stroke-linecap="round" stroke-linejoin="round"/>
<path d="M152.943 53.2432C145.691 53.6017 148.746 48.1045 149.567 45.0669L153.421 45.1194C153.397 45.5256 159.304 52.9288 152.943 53.2432Z" fill="#6C80C6" stroke="#485686" stroke-width="0.1" stroke-linecap="round" stroke-linejoin="round"/>
<path d="M142.517 39.7394C139.127 45.0191 146.112 44.9472 150.168 44.7781L151.415 43.8559C150.955 43.7062 145.49 35.1087 142.517 39.7394Z" fill="#748BDE" stroke="#485686" stroke-width="0.1" stroke-linecap="round" stroke-linejoin="round"/>
<path d="M141.794 47.9329C144.043 53.3196 148.234 48.9587 150.564 46.3468L149.839 44.1118C149.437 44.3028 139.821 43.2085 141.794 47.9329Z" fill="#748BDE" stroke="#485686" stroke-width="0.1" stroke-linecap="round" stroke-linejoin="round"/>
<ellipse cx="150.633" cy="44.9023" rx="2.90553" ry="2.42627" transform="rotate(15 150.633 44.9023)" fill="#9BAFF3"/>
<path d="M150.988 43.5815C151.93 43.8342 152.448 44.6482 152.263 45.3386C152.078 46.0291 151.222 46.476 150.28 46.2237C149.337 45.9711 148.819 45.156 149.004 44.4654C149.189 43.775 150.045 43.329 150.988 43.5815Z" fill="#FCDC8A" stroke="#9BAFF3" stroke-width="0.5"/>
<path d="M109.33 94.747C109.625 101.959 115.252 95.7993 118.95 95.0999L119.792 93.5889C119.313 93.6088 109.059 88.1214 109.33 94.747Z" fill="#748BDE" stroke="#485686" stroke-width="0.1" stroke-linecap="round" stroke-linejoin="round"/>
<path d="M115.681 86.9359C122.383 83.8841 121.232 90.1929 121.411 93.3546L117.774 94.7479C117.669 94.3573 109.802 89.6125 115.681 86.9359Z" fill="#6C80C6" stroke="#485686" stroke-width="0.1" stroke-linecap="round" stroke-linejoin="round"/>
<path d="M116.326 102.269C123.578 102.627 120.523 97.1303 119.702 94.0926L115.848 94.1452C115.872 94.5514 109.965 101.955 116.326 102.269Z" fill="#6C80C6" stroke="#485686" stroke-width="0.1" stroke-linecap="round" stroke-linejoin="round"/>
<path d="M126.752 88.7651C130.142 94.0449 123.157 93.973 119.101 93.8039L117.854 92.8816C118.314 92.7319 123.779 84.1344 126.752 88.7651Z" fill="#748BDE" stroke="#485686" stroke-width="0.1" stroke-linecap="round" stroke-linejoin="round"/>
<path d="M127.475 96.9587C125.226 102.345 121.035 97.9844 118.705 95.3725L119.43 93.1375C119.832 93.3286 129.448 92.2342 127.475 96.9587Z" fill="#748BDE" stroke="#485686" stroke-width="0.1" stroke-linecap="round" stroke-linejoin="round"/>
<ellipse cx="2.90553" cy="2.42627" rx="2.90553" ry="2.42627" transform="matrix(-0.965926 0.258819 0.258819 0.965926 120.814 90.8325)" fill="#9BAFF3"/>
<path d="M118.281 92.6073C117.339 92.86 116.821 93.674 117.006 94.3644C117.191 95.0549 118.047 95.5017 118.989 95.2494C119.932 94.9969 120.45 94.1817 120.265 93.4911C120.08 92.8007 119.224 92.3548 118.281 92.6073Z" fill="#FCDC8A" stroke="#9BAFF3" stroke-width="0.5"/>
<path d="M37.3299 48.747C37.6252 55.9592 43.2516 49.7993 46.9498 49.0999L47.7916 47.5889C47.3127 47.6088 37.0585 42.1214 37.3299 48.747Z" fill="#748BDE" stroke="#485686" stroke-width="0.1" stroke-linecap="round" stroke-linejoin="round"/>
<path d="M43.6805 40.9359C50.3828 37.8841 49.2324 44.1929 49.4111 47.3546L45.7737 48.7479C45.6691 48.3573 37.8022 43.6125 43.6805 40.9359Z" fill="#6C80C6" stroke="#485686" stroke-width="0.1" stroke-linecap="round" stroke-linejoin="round"/>
<path d="M44.3259 56.2689C51.5784 56.6274 48.5232 51.1303 47.7017 48.0926L43.848 48.1452C43.8719 48.5514 37.965 55.9546 44.3259 56.2689Z" fill="#6C80C6" stroke="#485686" stroke-width="0.1" stroke-linecap="round" stroke-linejoin="round"/>
<path d="M54.7521 42.7651C58.1418 48.0449 51.1572 47.973 47.1012 47.8039L45.8539 46.8816C46.3142 46.7319 51.7792 38.1344 54.7521 42.7651Z" fill="#748BDE" stroke="#485686" stroke-width="0.1" stroke-linecap="round" stroke-linejoin="round"/>
<path d="M55.4752 50.9587C53.2264 56.3453 49.0351 51.9844 46.7052 49.3725L47.4296 47.1375C47.8319 47.3286 57.4476 46.2342 55.4752 50.9587Z" fill="#748BDE" stroke="#485686" stroke-width="0.1" stroke-linecap="round" stroke-linejoin="round"/>
<ellipse cx="2.90553" cy="2.42627" rx="2.90553" ry="2.42627" transform="matrix(-0.965926 0.258819 0.258819 0.965926 48.8142 44.8325)" fill="#9BAFF3"/>
<path d="M46.2814 46.6073C45.3392 46.86 44.8214 47.674 45.0062 48.3644C45.1912 49.0549 46.0469 49.5017 46.9893 49.2494C47.9319 48.9969 48.4503 48.1817 48.2652 47.4911C48.08 46.8007 47.2238 46.3548 46.2814 46.6073Z" fill="#FCDC8A" stroke="#9BAFF3" stroke-width="0.5"/>
<path d="M70.3299 73.782C70.6252 66.5698 76.2516 72.7297 79.9498 73.4291L80.7916 74.9401C80.3127 74.9202 70.0585 80.4076 70.3299 73.782Z" fill="#748BDE" stroke="#485686" stroke-width="0.1" stroke-linecap="round" stroke-linejoin="round"/>
<path d="M76.6805 81.5931C83.3828 84.6449 82.2324 78.3361 82.4111 75.1744L78.7737 73.7811C78.6691 74.1717 70.8022 78.9165 76.6805 81.5931Z" fill="#6C80C6" stroke="#485686" stroke-width="0.1" stroke-linecap="round" stroke-linejoin="round"/>
<path d="M77.3259 66.26C84.5784 65.9016 81.5232 71.3987 80.7017 74.4364L76.848 74.3838C76.8719 73.9776 70.965 66.5744 77.3259 66.26Z" fill="#6C80C6" stroke="#485686" stroke-width="0.1" stroke-linecap="round" stroke-linejoin="round"/>
<path d="M87.7521 79.7639C91.1418 74.4841 84.1572 74.556 80.1012 74.7251L78.8539 75.6474C79.3142 75.7971 84.7792 84.3945 87.7521 79.7639Z" fill="#748BDE" stroke="#485686" stroke-width="0.1" stroke-linecap="round" stroke-linejoin="round"/>
<path d="M88.4752 71.5703C86.2264 66.1836 82.0351 70.5446 79.7052 73.1565L80.4296 75.3915C80.8319 75.2004 90.4476 76.2948 88.4752 71.5703Z" fill="#748BDE" stroke="#485686" stroke-width="0.1" stroke-linecap="round" stroke-linejoin="round"/>
<ellipse cx="79.6357" cy="74.6009" rx="2.90553" ry="2.42627" transform="rotate(-165 79.6357 74.6009)" fill="#9BAFF3"/>
<path d="M79.2814 75.9217C78.3392 75.669 77.8214 74.855 78.0062 74.1646C78.1912 73.4741 79.0469 73.0273 79.9893 73.2796C80.9319 73.5321 81.4503 74.3473 81.2652 75.0379C81.08 75.7283 80.2238 76.1742 79.2814 75.9217Z" fill="#FCDC8A" stroke="#9BAFF3" stroke-width="0.5"/>
<path d="M97.5811 39.173C95.9997 32.1301 103.029 36.624 106.782 36.3424L107.986 37.5841C107.518 37.6887 99.0339 45.6431 97.5811 39.173Z" fill="#748BDE" stroke="#485686" stroke-width="0.1" stroke-linecap="round" stroke-linejoin="round"/>
<path d="M105.737 45.0743C113.001 46.2874 110.257 40.4913 109.611 37.3911L105.737 36.9867C105.737 37.3911 99.3664 44.0103 105.737 45.0743Z" fill="#6C80C6" stroke="#485686" stroke-width="0.1" stroke-linecap="round" stroke-linejoin="round"/>
<path d="M102.392 30.0967C109.305 27.8734 107.776 33.9739 107.769 37.1207L104.033 38.0673C103.951 37.6688 96.3292 32.0467 102.392 30.0967Z" fill="#6C80C6" stroke="#485686" stroke-width="0.1" stroke-linecap="round" stroke-linejoin="round"/>
<path d="M115.958 40.4419C117.866 34.4647 111.138 36.3419 107.264 37.555L106.298 38.7686C106.781 38.7941 114.285 45.6842 115.958 40.4419Z" fill="#748BDE" stroke="#485686" stroke-width="0.1" stroke-linecap="round" stroke-linejoin="round"/>
<path d="M114.536 32.3403C110.969 27.7193 108.05 33.0163 106.475 36.1423L107.753 38.1136C108.093 37.825 117.664 36.3933 114.536 32.3403Z" fill="#748BDE" stroke="#485686" stroke-width="0.1" stroke-linecap="round" stroke-linejoin="round"/>
<ellipse cx="106.782" cy="37.5555" rx="2.90553" ry="2.42627" transform="rotate(-180 106.782 37.5555)" fill="#9BAFF3"/>
<path d="M106.781 38.923C105.806 38.9228 105.095 38.2705 105.095 37.5558C105.095 36.841 105.806 36.1879 106.781 36.1877C107.757 36.1877 108.469 36.8409 108.469 37.5558C108.469 38.2707 107.757 38.923 106.781 38.923Z" fill="#FCDC8A" stroke="#9BAFF3" stroke-width="0.5"/>
</svg>
