<svg width="168" height="208" viewBox="0 0 168 208" fill="none" xmlns="http://www.w3.org/2000/svg">
<path d="M62.5725 151.419C62.5725 151.419 157.306 136.138 166.779 20C132.044 20 109.939 35.2813 73.2154 68.9001C49.9413 90.2063 30.9946 96.4064 5.73234 102.519C10.696 114.529 30.9947 145.306 46.7836 151.419C48.9349 152.198 55.1046 153.288 62.5725 151.419Z" fill="#ECB8D7"/>
<path d="M2.57456 20C-0.583218 68.9001 -0.5832 87.2376 5.73234 102.519C30.9946 96.4064 49.9413 90.2063 73.2154 68.9001C58.9937 68.9001 20.1958 36.3 2.57456 20Z" fill="#ECB8D7"/>
<path fill-rule="evenodd" clip-rule="evenodd" d="M46.7836 151.419C40.468 164.663 30.6577 185.165 15.5004 192.5C-3.44635 201.669 81.5192 212.544 84.677 200.319C87.8348 188.094 62.5725 151.419 62.5725 151.419C62.5725 151.419 157.306 136.138 166.779 20C132.044 20 109.939 35.2813 73.2154 68.9001C58.9937 68.9001 20.1958 36.3 2.57456 20C-0.583218 68.9001 -0.5832 87.2376 5.73234 102.519C10.696 114.529 30.9947 145.306 46.7836 151.419Z" fill="#ECB8D7"/>
<path d="M46.7836 151.419C30.9947 145.306 10.696 114.529 5.73234 102.519M46.7836 151.419C48.9349 152.198 55.1046 153.288 62.5725 151.419M46.7836 151.419C40.468 164.663 30.6577 185.165 15.5004 192.5C-3.44635 201.669 81.5192 212.544 84.677 200.319C87.8348 188.094 62.5725 151.419 62.5725 151.419M46.7836 151.419C49.4349 152.049 56.3046 152.931 62.5725 151.419M62.5725 151.419C62.5725 151.419 157.306 136.138 166.779 20C132.044 20 109.939 35.2813 73.2154 68.9001M5.73234 102.519C-0.5832 87.2376 -0.583218 68.9001 2.57456 20C20.1958 36.3 58.9937 68.9001 73.2154 68.9001M5.73234 102.519C30.9946 96.4064 49.9413 90.2063 73.2154 68.9001" stroke="#A56A8D" stroke-linecap="round" stroke-linejoin="round"/>
</svg>
