<svg width="168" height="209" viewBox="0 0 168 209" fill="none" xmlns="http://www.w3.org/2000/svg">
<path d="M166.779 61.2892L161.637 63.0485L82.6687 90.0683C103.372 97.3492 125.559 102.722 147.05 103.7C159.84 84.5144 166.779 67.6845 166.779 61.2892Z" fill="#B1A2C0" stroke="#42364E" stroke-linecap="round" stroke-linejoin="round"/>
<path d="M0.5 48.4985C26.6763 66.9525 94.0208 103.861 153.988 103.861L64.751 155.763L96.8764 200.744C59.7537 217.353 31.4356 203.051 21.917 193.824L64.751 155.763L32.6255 102.131L0.5 48.4985Z" fill="#805CA5"/>
<path d="M64.751 155.763L153.988 103.861C94.0208 103.861 26.6763 66.9525 0.5 48.4985L32.6255 102.131L64.751 155.763ZM64.751 155.763L21.917 193.824C31.4356 203.051 59.7537 217.353 96.8764 200.744L64.751 155.763Z" stroke="#42364E" stroke-linecap="round" stroke-linejoin="round"/>
</svg>
