<svg width="167" height="209" viewBox="0 0 167 209" fill="none" xmlns="http://www.w3.org/2000/svg">
<path d="M115.823 45.2168L133.971 51.8899L159.823 61.72L68.597 155.151C89.0273 125.934 109.2 93.5958 124.621 67.7493L108.827 61.5034L115.823 45.2168Z" fill="#D9CB9B"/>
<path d="M29.2947 41.8439L48.9592 39.0847L50.5736 56.2626L33.1718 58.4655C39.9217 86.7051 49.2615 122.376 59.8563 155.035L0.5 44.8263L29.2947 41.8439Z" fill="#D9CB9B"/>
<path d="M21.8776 198.16L59.8563 155.035L45.8005 192.656L41.1978 204.975L21.8776 198.16Z" fill="#D9CB9B"/>
<path d="M59.8563 155.035L68.597 155.151L58.957 194.752L45.8005 192.656L59.8563 155.035Z" fill="#D9CB9B"/>
<path d="M68.597 155.151L70.2555 201.567H57.298L58.957 194.752L68.597 155.151Z" fill="#D9CB9B"/>
<path d="M68.597 155.151L87.5722 198.16L70.499 208.382L70.2555 201.567L68.597 155.151Z" fill="#D9CB9B"/>
<path d="M70.499 53.4668L50.5736 56.2626L33.1718 58.4655C39.9217 86.7051 49.2615 122.376 59.8563 155.035L60.9201 67.9192L69.1077 66.7446L70.499 53.4668Z" fill="#D9CB9B"/>
<path d="M87.5722 67.9192C81.1194 66.4319 72.5739 66.5164 69.1077 66.7446L60.9201 67.9192L59.8563 155.035L68.597 155.151L93.1204 70.1532L87.5722 67.9192Z" fill="#D9CB9B"/>
<path d="M108.827 61.5034L90.4386 54.7418L87.5722 67.9192L93.1204 70.1532L68.597 155.151C89.0273 125.934 109.2 93.5958 124.621 67.7493L108.827 61.5034Z" fill="#D9CB9B"/>
<path d="M68.597 155.151C89.0273 125.934 109.2 93.5958 124.621 67.7493L108.827 61.5034M68.597 155.151L159.823 61.72L133.971 51.8899L115.823 45.2168L108.827 61.5034M68.597 155.151L59.8563 155.035M68.597 155.151L87.5722 198.16L70.499 208.382L70.2555 201.567M68.597 155.151L70.2555 201.567M68.597 155.151L58.957 194.752M68.597 155.151L93.1204 70.1532L87.5722 67.9192M108.827 61.5034L90.4386 54.7418L87.5722 67.9192M59.8563 155.035C49.2615 122.376 39.9217 86.7051 33.1718 58.4655L50.5736 56.2626M59.8563 155.035L0.5 44.8263L29.2947 41.8439L48.9592 39.0847L50.5736 56.2626M59.8563 155.035L21.8776 198.16L41.1978 204.975L45.8005 192.656M59.8563 155.035L45.8005 192.656M59.8563 155.035L60.9201 67.9192L69.1077 66.7446M50.5736 56.2626L70.499 53.4668L69.1077 66.7446M69.1077 66.7446C72.5739 66.5164 81.1194 66.4319 87.5722 67.9192M70.2555 201.567H57.298L58.957 194.752M58.957 194.752L45.8005 192.656" stroke="#615B47" stroke-linecap="round" stroke-linejoin="round"/>
</svg>
